<svg width="745" height="324" viewBox="0 0 745 324" fill="none" xmlns="http://www.w3.org/2000/svg">
<path d="M379.689 108.22C375.685 108.22 373.419 106.262 373.419 102.83C373.419 99.728 375.289 97.814 378.589 97.484V96.956C378.589 95.944 378.281 95.57 377.885 95.174C376.829 94.118 376.521 93.348 376.521 92.248V91.5H379.073V91.874C379.073 92.908 379.205 93.282 380.019 94.096C380.723 94.8 381.141 95.394 381.141 96.714V97.55C384.221 97.968 385.937 99.838 385.937 102.83C385.937 106.262 383.671 108.22 379.689 108.22ZM376.081 102.786C376.081 104.898 377.401 105.91 379.689 105.91C381.955 105.91 383.275 104.898 383.275 102.786C383.275 100.718 381.955 99.706 379.689 99.706C377.401 99.706 376.081 100.718 376.081 102.786ZM397.727 100.982H398.365C398.365 99.09 400.257 97.66 402.611 97.66C405.845 97.66 407.913 99.552 407.913 103.424C407.913 104.876 407.759 106.152 407.407 108H404.811C405.031 106.394 405.207 105.052 405.207 103.578C405.207 101.026 404.107 100.014 402.281 100.014C400.389 100.014 399.333 101.026 399.333 103.226V105.338H396.759V103.226C396.759 101.026 395.703 100.014 393.811 100.014C391.985 100.014 390.885 101.026 390.885 103.578C390.885 105.052 391.061 106.394 391.281 108H388.707C388.333 106.152 388.179 104.876 388.179 103.424C388.179 90.884 399.773 95.152 400.367 91.5H403.205C402.919 96.978 392.975 94.14 390.643 98.98L391.259 99.134C391.787 98.254 392.865 97.66 393.987 97.66C395.945 97.66 397.727 99.09 397.727 100.982ZM415.965 108.22C411.961 108.22 409.695 106.262 409.695 102.83C409.695 102.258 409.783 101.73 409.937 101.29H412.577C412.423 101.928 412.401 102.368 412.401 102.742C412.401 104.854 413.721 105.866 415.965 105.866C418.187 105.866 419.507 104.854 419.507 102.83V96.67C419.507 94.646 418.187 93.634 416.295 93.634C414.381 93.634 413.061 94.646 413.061 96.67V96.934H410.355V96.67C410.355 93.238 412.621 91.28 416.295 91.28C419.947 91.28 422.213 93.238 422.213 96.67V102.83C422.213 106.262 419.947 108.22 415.965 108.22ZM424.404 103.028V96.12C424.404 93.084 425.922 91.5 429.486 91.5H435.822V93.854H429.464C427.66 93.854 427.088 94.778 427.088 96.252V97.33C427.088 98.166 426.978 98.782 426.67 99.618L427.286 99.772C427.946 98.298 429.75 97.44 431.686 97.44C434.612 97.44 436.9 99.134 436.9 102.742C436.9 106.328 434.634 108.22 430.63 108.22C426.67 108.22 424.404 106.328 424.404 103.028ZM430.762 99.596C428.958 99.596 427.682 100.586 427.088 101.202V103.028C427.088 104.92 428.386 105.866 430.63 105.866C432.874 105.866 434.194 104.92 434.194 102.742C434.194 100.542 432.874 99.596 430.762 99.596ZM445.02 103.6C441.808 103.38 438.75 100.542 438.75 96.846C438.75 93.238 440.884 91.28 444.03 91.28C446.142 91.28 447.462 92.424 447.792 93.392H448.43C448.76 92.424 450.344 91.28 452.896 91.28C456.57 91.28 458.836 93.238 458.836 96.67C458.836 100.102 456.57 102.06 452.896 102.06C449.244 102.06 446.978 100.102 446.978 96.67C446.978 96.032 447.044 95.438 447.22 94.91C446.648 94.162 445.592 93.634 444.338 93.634C442.644 93.634 441.456 94.646 441.456 96.912C441.456 99.882 443.656 101.598 447.352 102.918C451.928 104.546 453.468 105.646 453.776 108H450.938C450.718 106.504 448.298 105.228 446.186 105.228C444.602 105.228 443.722 105.624 442.776 106.306L441.39 104.81C442.05 104.326 442.6 104.106 443.59 104.106C444.162 104.106 444.36 104.128 445.02 104.238V103.6ZM449.596 96.67C449.596 98.76 450.872 99.794 452.896 99.794C454.942 99.794 456.218 98.76 456.218 96.67C456.218 94.58 454.942 93.546 452.896 93.546C450.872 93.546 449.596 94.58 449.596 96.67ZM467.018 91.28C470.78 91.28 473.046 93.238 473.046 98.298C473.046 102.874 472.914 104.194 472.496 108H469.944C470.23 104.942 470.34 102.346 470.34 98.298C470.34 94.646 469.042 93.634 467.018 93.634C464.994 93.634 463.674 94.646 463.674 98.298C463.674 102.346 463.784 104.942 464.07 108H461.518C461.1 104.194 460.968 102.874 460.968 98.298C460.968 93.238 463.234 91.28 467.018 91.28ZM475.408 103.028V96.12C475.408 93.084 476.926 91.5 480.49 91.5H486.826V93.854H480.468C478.664 93.854 478.092 94.778 478.092 96.252V97.33C478.092 98.166 477.982 98.782 477.674 99.618L478.29 99.772C478.95 98.298 480.754 97.44 482.69 97.44C485.616 97.44 487.904 99.134 487.904 102.742C487.904 106.328 485.638 108.22 481.634 108.22C477.674 108.22 475.408 106.328 475.408 103.028ZM481.766 99.596C479.962 99.596 478.686 100.586 478.092 101.202V103.028C478.092 104.92 479.39 105.866 481.634 105.866C483.878 105.866 485.198 104.92 485.198 102.742C485.198 100.542 483.878 99.596 481.766 99.596ZM489.864 103.028C489.864 99.706 492.13 97.814 496.134 97.814C497.52 97.814 498.576 97.396 498.576 95.768C498.576 94.206 497.652 93.546 496.134 93.546C494.594 93.546 493.67 94.206 493.67 95.658V96.296H491.03V95.636C491.03 92.82 492.878 91.28 496.134 91.28C499.368 91.28 501.216 92.82 501.216 95.548C501.216 97.022 500.38 98.408 498.422 98.408V99.046C500.71 99.046 502.382 100.608 502.382 103.028C502.382 106.328 500.116 108.22 496.134 108.22C492.13 108.22 489.864 106.328 489.864 103.028ZM496.134 105.866C498.312 105.866 499.676 104.898 499.676 102.984C499.676 101.048 498.312 100.08 496.134 100.08C493.934 100.08 492.57 101.048 492.57 102.984C492.592 104.92 493.934 105.866 496.134 105.866ZM510.674 91.28C514.436 91.28 516.702 93.238 516.702 98.298C516.702 102.874 516.57 104.194 516.152 108H513.6C513.886 104.942 513.996 102.346 513.996 98.298C513.996 94.646 512.698 93.634 510.674 93.634C508.65 93.634 507.33 94.646 507.33 98.298C507.33 102.346 507.44 104.942 507.726 108H505.174C504.756 104.194 504.624 102.874 504.624 98.298C504.624 93.238 506.89 91.28 510.674 91.28ZM519.35 108H518.514V105.646H520.868V108L519.878 109.98H518.668L519.35 108ZM528.207 103.27C528.207 102.698 528.273 102.17 528.449 101.73H531.067C530.913 102.368 530.913 102.808 530.913 103.182C530.913 104.854 532.233 105.866 534.477 105.866C536.699 105.866 538.019 104.898 538.019 103.358C538.019 102.17 537.183 101.136 535.467 101.136H533.707V98.848H535.467C537.007 98.848 537.799 98.188 537.799 97.044C537.799 94.404 532.651 95.548 532.651 91.5H535.357C535.357 93.964 540.505 93.458 540.505 96.912C540.505 98.452 539.383 99.662 537.205 99.662V100.3C539.493 100.3 540.725 101.774 540.725 103.49C540.725 106.35 538.459 108.22 534.477 108.22C530.473 108.22 528.207 106.262 528.207 103.27ZM548.276 91.28C550.63 91.28 552.522 92.71 552.522 95.042H553.16C553.16 92.71 555.052 91.28 557.406 91.28C560.64 91.28 562.708 93.128 562.708 98.628C562.708 102.764 562.576 104.194 562.158 108H559.606C559.892 104.942 560.002 102.346 560.002 98.87C560.002 94.646 558.902 93.634 557.076 93.634C555.184 93.634 554.128 94.646 554.128 96.978V103.094H551.554V96.978C551.554 94.646 550.498 93.634 548.606 93.634C546.78 93.634 545.68 94.646 545.68 98.87C545.68 102.346 545.79 104.942 546.076 108H543.524C543.106 104.194 542.974 102.764 542.974 98.628C542.974 93.128 545.042 91.28 548.276 91.28ZM568.252 99.266C566.118 99.266 564.292 98.012 564.292 95.746C564.292 93.15 566.426 91.28 569.616 91.28C572.784 91.28 574.918 93.238 574.918 95.526C574.918 96.626 574.522 97.352 573.664 97.968L573.84 98.584C574.038 98.562 574.236 98.562 574.434 98.562C577.404 98.562 578.856 100.762 578.856 103.182C578.856 106.262 576.59 108.22 572.784 108.22C568.956 108.22 566.69 106.262 566.69 103.314C566.69 101.862 567.35 100.63 568.428 99.882L568.252 99.266ZM572.146 99.706C570.76 100.256 569.374 101.29 569.374 103.006C569.374 104.81 570.716 105.91 572.784 105.91C574.852 105.91 576.194 104.81 576.194 103.006C576.194 101.378 575.292 99.706 572.146 99.706ZM569.616 93.524C567.79 93.524 566.932 94.602 566.932 95.922C566.932 97.242 567.636 98.298 570.188 98.298C571.398 97.77 572.278 97.022 572.278 95.768C572.278 94.602 571.442 93.524 569.616 93.524ZM587.03 91.28C590.792 91.28 593.058 93.238 593.058 98.298C593.058 102.874 592.926 104.194 592.508 108H589.956C590.242 104.942 590.352 102.346 590.352 98.298C590.352 94.646 589.054 93.634 587.03 93.634C585.006 93.634 583.686 94.646 583.686 98.298C583.686 102.346 583.796 104.942 584.082 108H581.53C581.112 104.194 580.98 102.874 580.98 98.298C580.98 93.238 583.246 91.28 587.03 91.28ZM595.42 99.794C595.42 97.088 595.508 95.35 596.388 91.5H599.006C598.126 95.548 598.126 97.22 598.126 99.728C598.126 103.974 599.534 105.866 602.878 105.866C606.046 105.866 607.432 104.81 607.432 102.918C607.432 101.092 606.596 100.036 604.88 100.036H602.856V97.748H604.88C606.442 97.748 607.146 97.088 607.146 96.098C607.146 93.81 603.01 94.844 603.01 91.5H605.716C605.716 93.436 609.852 93.084 609.852 96.01C609.852 97.374 608.796 98.584 606.266 98.584V99.222C608.906 99.222 610.138 100.696 610.138 103.05C610.138 106.262 607.806 108.22 602.878 108.22C597.774 108.22 595.42 105.382 595.42 99.794ZM618.139 91.28C621.901 91.28 624.167 93.238 624.167 98.298C624.167 102.874 624.035 104.194 623.617 108H621.065C621.351 104.942 621.461 102.346 621.461 98.298C621.461 94.646 620.163 93.634 618.139 93.634C616.115 93.634 614.795 94.646 614.795 98.298C614.795 102.346 614.905 104.942 615.191 108H612.639C612.221 104.194 612.089 102.874 612.089 98.298C612.089 93.238 614.355 91.28 618.139 91.28ZM631.721 91.28C634.075 91.28 635.967 92.71 635.967 95.042H636.605C636.605 92.71 638.497 91.28 640.851 91.28C644.085 91.28 646.153 93.128 646.153 98.628C646.153 102.764 646.021 104.194 645.603 108H643.051C643.337 104.942 643.447 102.346 643.447 98.87C643.447 94.646 642.347 93.634 640.521 93.634C638.629 93.634 637.573 94.646 637.573 96.978V103.094H634.999V96.978C634.999 94.646 633.943 93.634 632.051 93.634C630.225 93.634 629.125 94.646 629.125 98.87C629.125 102.346 629.235 104.942 629.521 108H626.969C626.551 104.194 626.419 102.764 626.419 98.628C626.419 93.128 628.487 91.28 631.721 91.28ZM648.508 103.028V96.12C648.508 93.084 650.026 91.5 653.59 91.5H659.926V93.854H653.568C651.764 93.854 651.192 94.778 651.192 96.252V97.33C651.192 98.166 651.082 98.782 650.774 99.618L651.39 99.772C652.05 98.298 653.854 97.44 655.79 97.44C658.716 97.44 661.004 99.134 661.004 102.742C661.004 106.328 658.738 108.22 654.734 108.22C650.774 108.22 648.508 106.328 648.508 103.028ZM654.866 99.596C653.062 99.596 651.786 100.586 651.192 101.202V103.028C651.192 104.92 652.49 105.866 654.734 105.866C656.978 105.866 658.298 104.92 658.298 102.742C658.298 100.542 656.978 99.596 654.866 99.596ZM669.014 91.28C672.776 91.28 675.042 93.238 675.042 98.298C675.042 102.874 674.91 104.194 674.492 108H671.94C672.226 104.942 672.336 102.346 672.336 98.298C672.336 94.646 671.038 93.634 669.014 93.634C666.99 93.634 665.67 94.646 665.67 98.298C665.67 102.346 665.78 104.942 666.066 108H663.514C663.096 104.194 662.964 102.874 662.964 98.298C662.964 93.238 665.23 91.28 669.014 91.28ZM686.842 100.982H687.48C687.48 99.09 689.372 97.66 691.726 97.66C694.96 97.66 697.028 99.552 697.028 103.424C697.028 104.876 696.874 106.152 696.522 108H693.926C694.146 106.394 694.322 105.052 694.322 103.578C694.322 101.026 693.222 100.014 691.396 100.014C689.504 100.014 688.448 101.026 688.448 103.226V105.338H685.874V103.226C685.874 101.026 684.818 100.014 682.926 100.014C681.1 100.014 680 101.026 680 103.578C680 105.052 680.176 106.394 680.396 108H677.822C677.448 106.152 677.294 104.876 677.294 103.424C677.294 90.884 688.888 95.152 689.482 91.5H692.32C692.034 96.978 682.09 94.14 679.758 98.98L680.374 99.134C680.902 98.254 681.98 97.66 683.102 97.66C685.06 97.66 686.842 99.09 686.842 100.982ZM705.081 108.22C701.077 108.22 698.811 106.262 698.811 102.83C698.811 102.258 698.899 101.73 699.053 101.29H701.693C701.539 101.928 701.517 102.368 701.517 102.742C701.517 104.854 702.837 105.866 705.081 105.866C707.303 105.866 708.623 104.854 708.623 102.83V96.67C708.623 94.646 707.303 93.634 705.411 93.634C703.497 93.634 702.177 94.646 702.177 96.67V96.934H699.471V96.67C699.471 93.238 701.737 91.28 705.411 91.28C709.063 91.28 711.329 93.238 711.329 96.67V102.83C711.329 106.262 709.063 108.22 705.081 108.22ZM719.679 108.22C715.675 108.22 713.409 106.262 713.409 102.83C713.409 99.728 715.279 97.814 718.579 97.484V96.956C718.579 95.944 718.271 95.57 717.875 95.174C716.819 94.118 716.511 93.348 716.511 92.248V91.5H719.063V91.874C719.063 92.908 719.195 93.282 720.009 94.096C720.713 94.8 721.131 95.394 721.131 96.714V97.55C724.211 97.968 725.927 99.838 725.927 102.83C725.927 106.262 723.661 108.22 719.679 108.22ZM716.071 102.786C716.071 104.898 717.391 105.91 719.679 105.91C721.945 105.91 723.265 104.898 723.265 102.786C723.265 100.718 721.945 99.706 719.679 99.706C717.391 99.706 716.071 100.718 716.071 102.786ZM727.883 102.742C727.883 102.192 727.949 101.598 728.191 100.938H730.809C730.611 101.818 730.589 102.28 730.589 102.588C730.589 104.854 731.909 105.866 734.153 105.866C736.375 105.866 737.695 104.854 737.695 102.588C737.695 97.396 731.887 97.022 731.887 91.5H734.593C734.593 96.01 740.401 96.34 740.401 102.742C740.401 106.262 738.135 108.22 734.153 108.22C730.149 108.22 727.883 106.262 727.883 102.742ZM472.198 129.6C468.986 129.38 465.928 126.542 465.928 122.846C465.928 119.238 468.062 117.28 471.208 117.28C473.32 117.28 474.64 118.424 474.97 119.392H475.608C475.938 118.424 477.522 117.28 480.074 117.28C483.748 117.28 486.014 119.238 486.014 122.67C486.014 126.102 483.748 128.06 480.074 128.06C476.422 128.06 474.156 126.102 474.156 122.67C474.156 122.032 474.222 121.438 474.398 120.91C473.826 120.162 472.77 119.634 471.516 119.634C469.822 119.634 468.634 120.646 468.634 122.912C468.634 125.882 470.834 127.598 474.53 128.918C479.106 130.546 480.646 131.646 480.954 134H478.116C477.896 132.504 475.476 131.228 473.364 131.228C471.78 131.228 470.9 131.624 469.954 132.306L468.568 130.81C469.228 130.326 469.778 130.106 470.768 130.106C471.34 130.106 471.538 130.128 472.198 130.238V129.6ZM476.774 122.67C476.774 124.76 478.05 125.794 480.074 125.794C482.12 125.794 483.396 124.76 483.396 122.67C483.396 120.58 482.12 119.546 480.074 119.546C478.05 119.546 476.774 120.58 476.774 122.67ZM485.883 128.742C485.883 128.192 485.949 127.598 486.191 126.938H488.809C488.611 127.818 488.589 128.28 488.589 128.588C488.589 130.854 489.909 131.866 492.153 131.866C494.375 131.866 495.695 130.854 495.695 128.588C495.695 123.396 489.887 123.022 489.887 117.5H492.593C492.593 122.01 498.401 122.34 498.401 128.742C498.401 132.262 496.135 134.22 492.153 134.22C488.149 134.22 485.883 132.262 485.883 128.742ZM506.582 117.5H509.288V128.808C509.288 130.92 510.608 131.866 512.852 131.866C515.096 131.866 516.394 130.986 516.394 129.38C516.394 126.872 514.304 126.256 514.304 123.66H517.01C517.01 125.662 519.1 126.432 519.1 129.38C519.1 132.394 516.834 134.22 512.852 134.22C508.848 134.22 506.582 132.328 506.582 128.808V117.5ZM528.65 134.22C523.59 134.22 521.06 131.602 521.06 126.41C521.06 121.636 523.216 119.04 527.462 118.644C527.396 118.468 527.374 118.226 527.374 117.962V117.5H529.926V117.962C529.926 118.226 529.882 118.468 529.838 118.644C534.062 119.04 536.218 121.636 536.218 126.41C536.218 131.602 533.688 134.22 528.65 134.22ZM523.766 126.41C523.766 130.194 525.35 131.866 528.65 131.866C531.928 131.866 533.512 130.194 533.512 126.41C533.512 122.912 532.236 121.174 529.728 120.8C529.838 121.152 529.926 121.526 529.926 122.142V126.85H527.374V122.142C527.374 121.526 527.462 121.152 527.55 120.8C525.064 121.174 523.766 122.912 523.766 126.41ZM548.01 126.982H548.648C548.648 125.09 550.54 123.66 552.894 123.66C556.128 123.66 558.196 125.552 558.196 129.424C558.196 130.876 558.042 132.152 557.69 134H555.094C555.314 132.394 555.49 131.052 555.49 129.578C555.49 127.026 554.39 126.014 552.564 126.014C550.672 126.014 549.616 127.026 549.616 129.226V131.338H547.042V129.226C547.042 127.026 545.986 126.014 544.094 126.014C542.268 126.014 541.168 127.026 541.168 129.578C541.168 131.052 541.344 132.394 541.564 134H538.99C538.616 132.152 538.462 130.876 538.462 129.424C538.462 116.884 550.056 121.152 550.65 117.5H553.488C553.202 122.978 543.258 120.14 540.926 124.98L541.542 125.134C542.07 124.254 543.148 123.66 544.27 123.66C546.228 123.66 548.01 125.09 548.01 126.982ZM560.154 128.742C560.154 128.192 560.22 127.598 560.462 126.938H563.08C562.882 127.818 562.86 128.28 562.86 128.588C562.86 130.854 564.18 131.866 566.424 131.866C568.646 131.866 569.966 130.854 569.966 128.588C569.966 123.396 564.158 123.022 564.158 117.5H566.864C566.864 122.01 572.672 122.34 572.672 128.742C572.672 132.262 570.406 134.22 566.424 134.22C562.42 134.22 560.154 132.262 560.154 128.742ZM582.511 134.22C577.451 134.22 574.921 131.602 574.921 126.41C574.921 121.636 577.077 119.04 581.323 118.644C581.257 118.468 581.235 118.226 581.235 117.962V117.5H583.787V117.962C583.787 118.226 583.743 118.468 583.699 118.644C587.923 119.04 590.079 121.636 590.079 126.41C590.079 131.602 587.549 134.22 582.511 134.22ZM577.627 126.41C577.627 130.194 579.211 131.866 582.511 131.866C585.789 131.866 587.373 130.194 587.373 126.41C587.373 122.912 586.097 121.174 583.589 120.8C583.699 121.152 583.787 121.526 583.787 122.142V126.85H581.235V122.142C581.235 121.526 581.323 121.152 581.411 120.8C578.925 121.174 577.627 122.912 577.627 126.41ZM598.131 134.22C594.127 134.22 591.861 132.262 591.861 128.83C591.861 128.258 591.949 127.73 592.103 127.29H594.743C594.589 127.928 594.567 128.368 594.567 128.742C594.567 130.854 595.887 131.866 598.131 131.866C600.353 131.866 601.673 130.854 601.673 128.83V122.67C601.673 120.646 600.353 119.634 598.461 119.634C596.547 119.634 595.227 120.646 595.227 122.67V122.934H592.521V122.67C592.521 119.238 594.787 117.28 598.461 117.28C602.113 117.28 604.379 119.238 604.379 122.67V128.83C604.379 132.262 602.113 134.22 598.131 134.22ZM606.46 129.028C606.46 125.706 608.726 123.814 612.73 123.814C614.116 123.814 615.172 123.396 615.172 121.768C615.172 120.206 614.248 119.546 612.73 119.546C611.19 119.546 610.266 120.206 610.266 121.658V122.296H607.626V121.636C607.626 118.82 609.474 117.28 612.73 117.28C615.964 117.28 617.812 118.82 617.812 121.548C617.812 123.022 616.976 124.408 615.018 124.408V125.046C617.306 125.046 618.978 126.608 618.978 129.028C618.978 132.328 616.712 134.22 612.73 134.22C608.726 134.22 606.46 132.328 606.46 129.028ZM612.73 131.866C614.908 131.866 616.272 130.898 616.272 128.984C616.272 127.048 614.908 126.08 612.73 126.08C610.53 126.08 609.166 127.048 609.166 128.984C609.188 130.92 610.53 131.866 612.73 131.866ZM627.27 117.28C631.032 117.28 633.298 119.238 633.298 124.298C633.298 128.874 633.166 130.194 632.748 134H630.196C630.482 130.942 630.592 128.346 630.592 124.298C630.592 120.646 629.294 119.634 627.27 119.634C625.246 119.634 623.926 120.646 623.926 124.298C623.926 128.346 624.036 130.942 624.322 134H621.77C621.352 130.194 621.22 128.874 621.22 124.298C621.22 119.238 623.486 117.28 627.27 117.28ZM635.264 128.742C635.264 128.192 635.33 127.598 635.572 126.938H638.19C637.992 127.818 637.97 128.28 637.97 128.588C637.97 130.854 639.29 131.866 641.534 131.866C643.756 131.866 645.076 130.854 645.076 128.588C645.076 123.396 639.268 123.022 639.268 117.5H641.974C641.974 122.01 647.782 122.34 647.782 128.742C647.782 132.262 645.516 134.22 641.534 134.22C637.53 134.22 635.264 132.262 635.264 128.742Z" fill="#0A35A0"/>
<path d="M210.645 29.22C206.641 29.22 204.375 27.328 204.375 23.742C204.375 20.134 206.663 18.44 209.589 18.44C211.525 18.44 213.307 19.298 213.989 20.772L214.605 20.618C214.297 19.782 214.187 19.166 214.187 18.33V17.472C214.187 15.58 212.867 14.634 210.975 14.634C209.061 14.634 207.741 15.58 207.741 17.032V17.252H205.035V17.032C205.035 14.172 207.301 12.28 210.975 12.28C214.627 12.28 216.893 14.172 216.893 17.472V24.028C216.893 27.328 214.627 29.22 210.645 29.22ZM207.081 23.742C207.081 25.92 208.401 26.866 210.645 26.866C212.867 26.866 214.187 25.92 214.187 24.028V22.202C213.593 21.586 212.317 20.596 210.491 20.596C208.401 20.596 207.081 21.542 207.081 23.742ZM225.299 12.28C229.061 12.28 231.327 14.238 231.327 19.298C231.327 23.874 231.195 25.194 230.777 29H228.225C228.511 25.942 228.621 23.346 228.621 19.298C228.621 15.646 227.323 14.634 225.299 14.634C223.275 14.634 221.955 15.646 221.955 19.298C221.955 23.346 222.065 25.942 222.351 29H219.799C219.381 25.194 219.249 23.874 219.249 19.298C219.249 14.238 221.515 12.28 225.299 12.28ZM236.879 20.266C234.745 20.266 232.919 19.012 232.919 16.746C232.919 14.15 235.053 12.28 238.243 12.28C241.411 12.28 243.545 14.238 243.545 16.526C243.545 17.626 243.149 18.352 242.291 18.968L242.467 19.584C242.665 19.562 242.863 19.562 243.061 19.562C246.031 19.562 247.483 21.762 247.483 24.182C247.483 27.262 245.217 29.22 241.411 29.22C237.583 29.22 235.317 27.262 235.317 24.314C235.317 22.862 235.977 21.63 237.055 20.882L236.879 20.266ZM240.773 20.706C239.387 21.256 238.001 22.29 238.001 24.006C238.001 25.81 239.343 26.91 241.411 26.91C243.479 26.91 244.821 25.81 244.821 24.006C244.821 22.378 243.919 20.706 240.773 20.706ZM238.243 14.524C236.417 14.524 235.559 15.602 235.559 16.922C235.559 18.242 236.263 19.298 238.815 19.298C240.025 18.77 240.905 18.022 240.905 16.768C240.905 15.602 240.069 14.524 238.243 14.524ZM249.716 24.028V17.12C249.716 14.084 251.234 12.5 254.798 12.5H261.134V14.854H254.776C252.972 14.854 252.4 15.778 252.4 17.252V18.33C252.4 19.166 252.29 19.782 251.982 20.618L252.598 20.772C253.258 19.298 255.062 18.44 256.998 18.44C259.924 18.44 262.212 20.134 262.212 23.742C262.212 27.328 259.946 29.22 255.942 29.22C251.982 29.22 249.716 27.328 249.716 24.028ZM256.074 20.596C254.27 20.596 252.994 21.586 252.4 22.202V24.028C252.4 25.92 253.698 26.866 255.942 26.866C258.186 26.866 259.506 25.92 259.506 23.742C259.506 21.542 258.186 20.596 256.074 20.596ZM269.981 29.22C265.977 29.22 263.711 27.262 263.711 23.83C263.711 23.258 263.799 22.73 263.953 22.29H266.593C266.439 22.928 266.417 23.368 266.417 23.742C266.417 25.854 267.737 26.866 269.981 26.866C272.203 26.866 273.523 25.854 273.523 23.83V17.67C273.523 15.646 272.203 14.634 270.311 14.634C268.397 14.634 267.077 15.646 267.077 17.67V17.934H264.371V17.67C264.371 14.238 266.637 12.28 270.311 12.28C273.963 12.28 276.229 14.238 276.229 17.67V23.83C276.229 27.262 273.963 29.22 269.981 29.22ZM284.58 29.22C280.576 29.22 278.31 27.262 278.31 23.83C278.31 20.728 280.18 18.814 283.48 18.484V17.956C283.48 16.944 283.172 16.57 282.776 16.174C281.72 15.118 281.412 14.348 281.412 13.248V12.5H283.964V12.874C283.964 13.908 284.096 14.282 284.91 15.096C285.614 15.8 286.032 16.394 286.032 17.714V18.55C289.112 18.968 290.828 20.838 290.828 23.83C290.828 27.262 288.562 29.22 284.58 29.22ZM280.972 23.786C280.972 25.898 282.292 26.91 284.58 26.91C286.846 26.91 288.166 25.898 288.166 23.786C288.166 21.718 286.846 20.706 284.58 20.706C282.292 20.706 280.972 21.718 280.972 23.786ZM299.119 12.28C302.881 12.28 305.147 14.238 305.147 19.298C305.147 23.874 305.015 25.194 304.597 29H302.045C302.331 25.942 302.441 23.346 302.441 19.298C302.441 15.646 301.143 14.634 299.119 14.634C297.095 14.634 295.775 15.646 295.775 19.298C295.775 23.346 295.885 25.942 296.171 29H293.619C293.201 25.194 293.069 23.874 293.069 19.298C293.069 14.238 295.335 12.28 299.119 12.28ZM307.509 12.5H310.215V23.808C310.215 25.92 311.535 26.866 313.779 26.866C316.023 26.866 317.321 25.986 317.321 24.38C317.321 21.872 315.231 21.256 315.231 18.66H317.937C317.937 20.662 320.027 21.432 320.027 24.38C320.027 27.394 317.761 29.22 313.779 29.22C309.775 29.22 307.509 27.328 307.509 23.808V12.5ZM321.701 23.742C321.701 23.192 321.767 22.598 322.009 21.938H324.627C324.429 22.818 324.407 23.28 324.407 23.588C324.407 25.854 325.727 26.866 327.971 26.866C330.193 26.866 331.513 25.854 331.513 23.588C331.513 18.396 325.705 18.022 325.705 12.5H328.411C328.411 17.01 334.219 17.34 334.219 23.742C334.219 27.262 331.953 29.22 327.971 29.22C323.967 29.22 321.701 27.262 321.701 23.742ZM348.45 24.6C345.238 24.38 342.18 21.542 342.18 17.846C342.18 14.238 344.314 12.28 347.46 12.28C349.572 12.28 350.892 13.424 351.222 14.392H351.86C352.19 13.424 353.774 12.28 356.326 12.28C360 12.28 362.266 14.238 362.266 17.67C362.266 21.102 360 23.06 356.326 23.06C352.674 23.06 350.408 21.102 350.408 17.67C350.408 17.032 350.474 16.438 350.65 15.91C350.078 15.162 349.022 14.634 347.768 14.634C346.074 14.634 344.886 15.646 344.886 17.912C344.886 20.882 347.086 22.598 350.782 23.918C355.358 25.546 356.898 26.646 357.206 29H354.368C354.148 27.504 351.728 26.228 349.616 26.228C348.032 26.228 347.152 26.624 346.206 27.306L344.82 25.81C345.48 25.326 346.03 25.106 347.02 25.106C347.592 25.106 347.79 25.128 348.45 25.238V24.6ZM353.026 17.67C353.026 19.76 354.302 20.794 356.326 20.794C358.372 20.794 359.648 19.76 359.648 17.67C359.648 15.58 358.372 14.546 356.326 14.546C354.302 14.546 353.026 15.58 353.026 17.67ZM362.135 23.742C362.135 23.192 362.201 22.598 362.443 21.938H365.061C364.863 22.818 364.841 23.28 364.841 23.588C364.841 25.854 366.161 26.866 368.405 26.866C370.627 26.866 371.947 25.854 371.947 23.588C371.947 18.396 366.139 18.022 366.139 12.5H368.845C368.845 17.01 374.653 17.34 374.653 23.742C374.653 27.262 372.387 29.22 368.405 29.22C364.401 29.22 362.135 27.262 362.135 23.742ZM382.438 24.27C382.438 23.698 382.504 23.17 382.68 22.73H385.298C385.144 23.368 385.144 23.808 385.144 24.182C385.144 25.854 386.464 26.866 388.708 26.866C390.93 26.866 392.25 25.898 392.25 24.358C392.25 23.17 391.414 22.136 389.698 22.136H387.938V19.848H389.698C391.238 19.848 392.03 19.188 392.03 18.044C392.03 15.404 386.882 16.548 386.882 12.5H389.588C389.588 14.964 394.736 14.458 394.736 17.912C394.736 19.452 393.614 20.662 391.436 20.662V21.3C393.724 21.3 394.956 22.774 394.956 24.49C394.956 27.35 392.69 29.22 388.708 29.22C384.704 29.22 382.438 27.262 382.438 24.27ZM406.752 21.982H407.39C407.39 20.09 409.282 18.66 411.636 18.66C414.87 18.66 416.938 20.552 416.938 24.424C416.938 25.876 416.784 27.152 416.432 29H413.836C414.056 27.394 414.232 26.052 414.232 24.578C414.232 22.026 413.132 21.014 411.306 21.014C409.414 21.014 408.358 22.026 408.358 24.226V26.338H405.784V24.226C405.784 22.026 404.728 21.014 402.836 21.014C401.01 21.014 399.91 22.026 399.91 24.578C399.91 26.052 400.086 27.394 400.306 29H397.732C397.358 27.152 397.204 25.876 397.204 24.424C397.204 11.884 408.798 16.152 409.392 12.5H412.23C411.944 17.978 402 15.14 399.668 19.98L400.284 20.134C400.812 19.254 401.89 18.66 403.012 18.66C404.97 18.66 406.752 20.09 406.752 21.982ZM424.485 12.28C426.839 12.28 428.731 13.71 428.731 16.042H429.369C429.369 13.71 431.261 12.28 433.615 12.28C436.849 12.28 438.917 14.128 438.917 19.628C438.917 23.764 438.785 25.194 438.367 29H435.815C436.101 25.942 436.211 23.346 436.211 19.87C436.211 15.646 435.111 14.634 433.285 14.634C431.393 14.634 430.337 15.646 430.337 17.978V24.094H427.763V17.978C427.763 15.646 426.707 14.634 424.815 14.634C422.989 14.634 421.889 15.646 421.889 19.87C421.889 23.346 421.999 25.942 422.285 29H419.733C419.315 25.194 419.183 23.764 419.183 19.628C419.183 14.128 421.251 12.28 424.485 12.28ZM441.271 20.794C441.271 18.088 441.359 16.35 442.239 12.5H444.857C443.977 16.548 443.977 18.22 443.977 20.728C443.977 24.974 445.385 26.866 448.729 26.866C451.897 26.866 453.283 25.81 453.283 23.918C453.283 22.092 452.447 21.036 450.731 21.036H448.707V18.748H450.731C452.293 18.748 452.997 18.088 452.997 17.098C452.997 14.81 448.861 15.844 448.861 12.5H451.567C451.567 14.436 455.703 14.084 455.703 17.01C455.703 18.374 454.647 19.584 452.117 19.584V20.222C454.757 20.222 455.989 21.696 455.989 24.05C455.989 27.262 453.657 29.22 448.729 29.22C443.625 29.22 441.271 26.382 441.271 20.794ZM463.748 29.22C459.744 29.22 457.478 27.262 457.478 23.83C457.478 23.258 457.566 22.73 457.72 22.29H460.36C460.206 22.928 460.184 23.368 460.184 23.742C460.184 25.854 461.504 26.866 463.748 26.866C465.97 26.866 467.29 25.854 467.29 23.83V17.67C467.29 15.646 465.97 14.634 464.078 14.634C462.164 14.634 460.844 15.646 460.844 17.67V17.934H458.138V17.67C458.138 14.238 460.404 12.28 464.078 12.28C467.73 12.28 469.996 14.238 469.996 17.67V23.83C469.996 27.262 467.73 29.22 463.748 29.22ZM472.187 12.5H474.893V23.808C474.893 25.92 476.213 26.866 478.457 26.866C480.701 26.866 481.999 25.986 481.999 24.38C481.999 21.872 479.909 21.256 479.909 18.66H482.615C482.615 20.662 484.705 21.432 484.705 24.38C484.705 27.394 482.439 29.22 478.457 29.22C474.453 29.22 472.187 27.328 472.187 23.808V12.5ZM492.715 12.28C496.477 12.28 498.743 14.238 498.743 19.298C498.743 23.874 498.611 25.194 498.193 29H495.641C495.927 25.942 496.037 23.346 496.037 19.298C496.037 15.646 494.739 14.634 492.715 14.634C490.691 14.634 489.371 15.646 489.371 19.298C489.371 23.346 489.481 25.942 489.767 29H487.215C486.797 25.194 486.665 23.874 486.665 19.298C486.665 14.238 488.931 12.28 492.715 12.28ZM501.105 12.5H503.811V23.808C503.811 25.92 505.131 26.866 507.375 26.866C509.619 26.866 510.917 25.986 510.917 24.38C510.917 21.872 508.827 21.256 508.827 18.66H511.533C511.533 20.662 513.623 21.432 513.623 24.38C513.623 27.394 511.357 29.22 507.375 29.22C503.371 29.22 501.105 27.328 501.105 23.808V12.5ZM260.571 55.22C256.567 55.22 254.301 53.262 254.301 49.83C254.301 46.728 256.171 44.814 259.471 44.484V43.956C259.471 42.944 259.163 42.57 258.767 42.174C257.711 41.118 257.403 40.348 257.403 39.248V38.5H259.955V38.874C259.955 39.908 260.087 40.282 260.901 41.096C261.605 41.8 262.023 42.394 262.023 43.714V44.55C265.103 44.968 266.819 46.838 266.819 49.83C266.819 53.262 264.553 55.22 260.571 55.22ZM256.963 49.786C256.963 51.898 258.283 52.91 260.571 52.91C262.837 52.91 264.157 51.898 264.157 49.786C264.157 47.718 262.837 46.706 260.571 46.706C258.283 46.706 256.963 47.718 256.963 49.786ZM275.11 38.28C278.872 38.28 281.138 40.238 281.138 45.298C281.138 49.874 281.006 51.194 280.588 55H278.036C278.322 51.942 278.432 49.346 278.432 45.298C278.432 41.646 277.134 40.634 275.11 40.634C273.086 40.634 271.766 41.646 271.766 45.298C271.766 49.346 271.876 51.942 272.162 55H269.61C269.192 51.194 269.06 49.874 269.06 45.298C269.06 40.238 271.326 38.28 275.11 38.28ZM286.691 46.266C284.557 46.266 282.731 45.012 282.731 42.746C282.731 40.15 284.865 38.28 288.055 38.28C291.223 38.28 293.357 40.238 293.357 42.526C293.357 43.626 292.961 44.352 292.103 44.968L292.279 45.584C292.477 45.562 292.675 45.562 292.873 45.562C295.843 45.562 297.295 47.762 297.295 50.182C297.295 53.262 295.029 55.22 291.223 55.22C287.395 55.22 285.129 53.262 285.129 50.314C285.129 48.862 285.789 47.63 286.867 46.882L286.691 46.266ZM290.585 46.706C289.199 47.256 287.813 48.29 287.813 50.006C287.813 51.81 289.155 52.91 291.223 52.91C293.291 52.91 294.633 51.81 294.633 50.006C294.633 48.378 293.731 46.706 290.585 46.706ZM288.055 40.524C286.229 40.524 285.371 41.602 285.371 42.922C285.371 44.242 286.075 45.298 288.627 45.298C289.837 44.77 290.717 44.022 290.717 42.768C290.717 41.602 289.881 40.524 288.055 40.524ZM299.528 50.028V43.12C299.528 40.084 301.046 38.5 304.61 38.5H310.946V40.854H304.588C302.784 40.854 302.212 41.778 302.212 43.252V44.33C302.212 45.166 302.102 45.782 301.794 46.618L302.41 46.772C303.07 45.298 304.874 44.44 306.81 44.44C309.736 44.44 312.024 46.134 312.024 49.742C312.024 53.328 309.758 55.22 305.754 55.22C301.794 55.22 299.528 53.328 299.528 50.028ZM305.886 46.596C304.082 46.596 302.806 47.586 302.212 48.202V50.028C302.212 51.92 303.51 52.866 305.754 52.866C307.998 52.866 309.318 51.92 309.318 49.742C309.318 47.542 307.998 46.596 305.886 46.596ZM319.792 55.22C315.788 55.22 313.522 53.262 313.522 49.83C313.522 49.258 313.61 48.73 313.764 48.29H316.404C316.25 48.928 316.228 49.368 316.228 49.742C316.228 51.854 317.548 52.866 319.792 52.866C322.014 52.866 323.334 51.854 323.334 49.83V43.67C323.334 41.646 322.014 40.634 320.122 40.634C318.208 40.634 316.888 41.646 316.888 43.67V43.934H314.182V43.67C314.182 40.238 316.448 38.28 320.122 38.28C323.774 38.28 326.04 40.238 326.04 43.67V49.83C326.04 53.262 323.774 55.22 319.792 55.22ZM328.231 38.5H330.937V49.808C330.937 51.92 332.257 52.866 334.501 52.866C336.745 52.866 338.043 51.986 338.043 50.38C338.043 47.872 335.953 47.256 335.953 44.66H338.659C338.659 46.662 340.749 47.432 340.749 50.38C340.749 53.394 338.483 55.22 334.501 55.22C330.497 55.22 328.231 53.328 328.231 49.808V38.5ZM348.245 49.742C348.245 49.192 348.311 48.598 348.553 47.938H351.171C350.973 48.818 350.951 49.28 350.951 49.588C350.951 51.854 352.271 52.866 354.515 52.866C356.737 52.866 358.057 51.854 358.057 49.588C358.057 44.396 352.249 44.022 352.249 38.5H354.955C354.955 43.01 360.763 43.34 360.763 49.742C360.763 53.262 358.497 55.22 354.515 55.22C350.511 55.22 348.245 53.262 348.245 49.742ZM363.122 50.028V43.12C363.122 40.084 364.64 38.5 368.204 38.5H374.54V40.854H368.182C366.378 40.854 365.806 41.778 365.806 43.252V44.33C365.806 45.166 365.696 45.782 365.388 46.618L366.004 46.772C366.664 45.298 368.468 44.44 370.404 44.44C373.33 44.44 375.618 46.134 375.618 49.742C375.618 53.328 373.352 55.22 369.348 55.22C365.388 55.22 363.122 53.328 363.122 50.028ZM369.48 46.596C367.676 46.596 366.4 47.586 365.806 48.202V50.028C365.806 51.92 367.104 52.866 369.348 52.866C371.592 52.866 372.912 51.92 372.912 49.742C372.912 47.542 371.592 46.596 369.48 46.596ZM377.292 49.742C377.292 49.192 377.358 48.598 377.6 47.938H380.218C380.02 48.818 379.998 49.28 379.998 49.588C379.998 51.854 381.318 52.866 383.562 52.866C385.784 52.866 387.104 51.854 387.104 49.588C387.104 44.396 381.296 44.022 381.296 38.5H384.002C384.002 43.01 389.81 43.34 389.81 49.742C389.81 53.262 387.544 55.22 383.562 55.22C379.558 55.22 377.292 53.262 377.292 49.742ZM396.177 38.28C398.553 38.28 400.445 39.71 400.445 41.602H401.083C401.083 39.71 402.777 38.28 404.999 38.28C407.221 38.28 408.937 39.71 408.937 41.602H409.575C409.575 39.71 411.467 38.28 413.799 38.28C417.033 38.28 419.123 40.238 419.123 43.846C419.123 45.386 418.683 46.926 417.979 48.4H415.427C416.065 46.926 416.417 45.628 416.417 43.912C416.417 41.646 415.317 40.634 413.491 40.634C411.599 40.634 410.543 41.646 410.543 43.846V45.958H407.947V43.846C407.947 41.646 406.913 40.634 404.999 40.634C403.107 40.634 402.051 41.646 402.051 43.846V45.958H399.477V43.846C399.477 41.646 398.421 40.634 396.507 40.634C394.703 40.634 393.559 41.646 393.559 43.912C393.559 48.62 398.091 49.368 402.579 49.764C408.673 50.292 412.237 51.568 412.655 55H409.817C409.091 52.624 405.901 52.316 401.699 52.316C398.949 52.316 397.959 52.91 396.991 53.702L395.561 52.14C396.221 51.546 396.991 51.304 397.695 51.304C398.289 51.304 398.465 51.326 399.499 51.48V50.842C395.935 50.556 390.853 49.566 390.853 43.846C390.853 40.238 392.965 38.28 396.177 38.28ZM427.306 38.28C431.068 38.28 433.334 40.238 433.334 45.298C433.334 49.874 433.202 51.194 432.784 55H430.232C430.518 51.942 430.628 49.346 430.628 45.298C430.628 41.646 429.33 40.634 427.306 40.634C425.282 40.634 423.962 41.646 423.962 45.298C423.962 49.346 424.072 51.942 424.358 55H421.806C421.388 51.194 421.256 49.874 421.256 45.298C421.256 40.238 423.522 38.28 427.306 38.28ZM438.886 46.266C436.752 46.266 434.926 45.012 434.926 42.746C434.926 40.15 437.06 38.28 440.25 38.28C443.418 38.28 445.552 40.238 445.552 42.526C445.552 43.626 445.156 44.352 444.298 44.968L444.474 45.584C444.672 45.562 444.87 45.562 445.068 45.562C448.038 45.562 449.49 47.762 449.49 50.182C449.49 53.262 447.224 55.22 443.418 55.22C439.59 55.22 437.324 53.262 437.324 50.314C437.324 48.862 437.984 47.63 439.062 46.882L438.886 46.266ZM442.78 46.706C441.394 47.256 440.008 48.29 440.008 50.006C440.008 51.81 441.35 52.91 443.418 52.91C445.486 52.91 446.828 51.81 446.828 50.006C446.828 48.378 445.926 46.706 442.78 46.706ZM440.25 40.524C438.424 40.524 437.566 41.602 437.566 42.922C437.566 44.242 438.27 45.298 440.822 45.298C442.032 44.77 442.912 44.022 442.912 42.768C442.912 41.602 442.076 40.524 440.25 40.524ZM457.663 38.28C461.425 38.28 463.691 40.238 463.691 45.298C463.691 49.874 463.559 51.194 463.141 55H460.589C460.875 51.942 460.985 49.346 460.985 45.298C460.985 41.646 459.687 40.634 457.663 40.634C455.639 40.634 454.319 41.646 454.319 45.298C454.319 49.346 454.429 51.942 454.715 55H452.163C451.745 51.194 451.613 49.874 451.613 45.298C451.613 40.238 453.879 38.28 457.663 38.28Z" fill="#0A35A0"/>
<path d="M58.0784 202.22C54.0744 202.22 51.8084 200.262 51.8084 196.83C51.8084 196.258 51.8964 195.73 52.0504 195.29H54.6904C54.5364 195.928 54.5144 196.368 54.5144 196.742C54.5144 198.854 55.8344 199.866 58.0784 199.866C60.3004 199.866 61.6204 198.854 61.6204 196.962C61.6204 195.488 60.7844 194.41 59.0684 194.41H57.3084V192.122H59.0684C60.6084 192.122 61.4004 191.418 61.4004 190.12C61.4004 188.69 60.0804 187.634 58.2984 187.634C56.4944 187.634 55.1744 188.646 55.1744 190.67V190.934H52.4684V190.67C52.4684 187.238 54.7344 185.28 58.2984 185.28C61.8404 185.28 64.1064 187.216 64.1064 190.054C64.1064 191.748 62.9844 192.958 60.8064 192.958V193.596C63.0944 193.596 64.3264 195.136 64.3264 197.138C64.3264 200.35 62.0604 202.22 58.0784 202.22ZM72.4572 185.28C76.2192 185.28 78.4852 187.238 78.4852 192.298C78.4852 196.874 78.3532 198.194 77.9352 202H75.3832C75.6692 198.942 75.7792 196.346 75.7792 192.298C75.7792 188.646 74.4812 187.634 72.4572 187.634C70.4332 187.634 69.1132 188.646 69.1132 192.298C69.1132 196.346 69.2232 198.942 69.5092 202H66.9572C66.5392 198.194 66.4072 196.874 66.4072 192.298C66.4072 187.238 68.6732 185.28 72.4572 185.28ZM86.8972 197.6C83.6852 197.38 80.6272 194.542 80.6272 190.846C80.6272 187.238 82.7612 185.28 85.9072 185.28C88.0192 185.28 89.3392 186.424 89.6692 187.392H90.3072C90.6372 186.424 92.2212 185.28 94.7732 185.28C98.4472 185.28 100.713 187.238 100.713 190.67C100.713 194.102 98.4472 196.06 94.7732 196.06C91.1212 196.06 88.8552 194.102 88.8552 190.67C88.8552 190.032 88.9212 189.438 89.0972 188.91C88.5252 188.162 87.4692 187.634 86.2152 187.634C84.5212 187.634 83.3332 188.646 83.3332 190.912C83.3332 193.882 85.5332 195.598 89.2292 196.918C93.8052 198.546 95.3452 199.646 95.6532 202H92.8152C92.5952 200.504 90.1752 199.228 88.0632 199.228C86.4792 199.228 85.5992 199.624 84.6532 200.306L83.2672 198.81C83.9272 198.326 84.4772 198.106 85.4672 198.106C86.0392 198.106 86.2372 198.128 86.8972 198.238V197.6ZM91.4732 190.67C91.4732 192.76 92.7492 193.794 94.7732 193.794C96.8192 193.794 98.0952 192.76 98.0952 190.67C98.0952 188.58 96.8192 187.546 94.7732 187.546C92.7492 187.546 91.4732 188.58 91.4732 190.67ZM108.653 202.22C104.649 202.22 102.383 200.262 102.383 196.83C102.383 196.258 102.471 195.73 102.625 195.29H105.265C105.111 195.928 105.089 196.368 105.089 196.742C105.089 198.854 106.409 199.866 108.653 199.866C110.875 199.866 112.195 198.854 112.195 196.83V190.67C112.195 188.646 110.875 187.634 108.983 187.634C107.069 187.634 105.749 188.646 105.749 190.67V190.934H103.043V190.67C103.043 187.238 105.309 185.28 108.983 185.28C112.635 185.28 114.901 187.238 114.901 190.67V196.83C114.901 200.262 112.635 202.22 108.653 202.22ZM122.283 185.28C124.637 185.28 126.529 186.71 126.529 189.042H127.167C127.167 186.71 129.059 185.28 131.413 185.28C134.647 185.28 136.715 187.128 136.715 192.628C136.715 196.764 136.583 198.194 136.165 202H133.613C133.899 198.942 134.009 196.346 134.009 192.87C134.009 188.646 132.909 187.634 131.083 187.634C129.191 187.634 128.135 188.646 128.135 190.978V197.094H125.561V190.978C125.561 188.646 124.505 187.634 122.613 187.634C120.787 187.634 119.687 188.646 119.687 192.87C119.687 196.346 119.797 198.942 120.083 202H117.531C117.113 198.194 116.981 196.764 116.981 192.628C116.981 187.128 119.049 185.28 122.283 185.28ZM150.942 197.6C147.73 197.38 144.672 194.542 144.672 190.846C144.672 187.238 146.806 185.28 149.952 185.28C152.064 185.28 153.384 186.424 153.714 187.392H154.352C154.682 186.424 156.266 185.28 158.818 185.28C162.492 185.28 164.758 187.238 164.758 190.67C164.758 194.102 162.492 196.06 158.818 196.06C155.166 196.06 152.9 194.102 152.9 190.67C152.9 190.032 152.966 189.438 153.142 188.91C152.57 188.162 151.514 187.634 150.26 187.634C148.566 187.634 147.378 188.646 147.378 190.912C147.378 193.882 149.578 195.598 153.274 196.918C157.85 198.546 159.39 199.646 159.698 202H156.86C156.64 200.504 154.22 199.228 152.108 199.228C150.524 199.228 149.644 199.624 148.698 200.306L147.312 198.81C147.972 198.326 148.522 198.106 149.512 198.106C150.084 198.106 150.282 198.128 150.942 198.238V197.6ZM155.518 190.67C155.518 192.76 156.794 193.794 158.818 193.794C160.864 193.794 162.14 192.76 162.14 190.67C162.14 188.58 160.864 187.546 158.818 187.546C156.794 187.546 155.518 188.58 155.518 190.67ZM164.627 196.742C164.627 196.192 164.693 195.598 164.935 194.938H167.553C167.355 195.818 167.333 196.28 167.333 196.588C167.333 198.854 168.653 199.866 170.897 199.866C173.119 199.866 174.439 198.854 174.439 196.588C174.439 191.396 168.631 191.022 168.631 185.5H171.337C171.337 190.01 177.145 190.34 177.145 196.742C177.145 200.262 174.879 202.22 170.897 202.22C166.893 202.22 164.627 200.262 164.627 196.742ZM190.76 185.28C193.048 185.28 194.632 186.424 194.962 187.392H195.6C195.93 186.424 197.316 185.28 199.516 185.28C202.662 185.28 204.796 187.238 204.796 189.878C204.796 192.804 202.882 193.75 200.44 193.75V194.388C202.376 194.388 203.784 195.312 203.784 197.644C203.784 200.13 201.43 202.22 196.722 202.22C192.014 202.22 189.66 200.262 189.66 196.962H192.366C192.366 198.942 193.774 199.866 196.722 199.866C199.67 199.866 201.078 198.92 201.078 197.336C201.078 195.598 200.022 195.224 199.098 195.224H197.58V192.914H199.34C200.418 192.914 202.09 192.452 202.09 190.032C202.09 188.536 200.902 187.634 199.208 187.634C197.954 187.634 196.898 188.162 196.326 188.91C196.502 189.438 196.568 190.032 196.568 190.56C196.568 193.882 194.302 195.84 190.76 195.84C187.196 195.84 184.93 193.882 184.93 190.56C184.93 187.238 187.196 185.28 190.76 185.28ZM187.548 190.56C187.548 192.54 188.824 193.574 190.76 193.574C192.674 193.574 193.95 192.54 193.95 190.56C193.95 188.58 192.674 187.546 190.76 187.546C188.824 187.546 187.548 188.58 187.548 190.56ZM211.916 185.28C214.27 185.28 216.162 186.71 216.162 189.042H216.8C216.8 186.71 218.692 185.28 221.046 185.28C224.28 185.28 226.348 187.128 226.348 192.628C226.348 196.764 226.216 198.194 225.798 202H223.246C223.532 198.942 223.642 196.346 223.642 192.87C223.642 188.646 222.542 187.634 220.716 187.634C218.824 187.634 217.768 188.646 217.768 190.978V197.094H215.194V190.978C215.194 188.646 214.138 187.634 212.246 187.634C210.42 187.634 209.32 188.646 209.32 192.87C209.32 196.346 209.43 198.942 209.716 202H207.164C206.746 198.194 206.614 196.764 206.614 192.628C206.614 187.128 208.682 185.28 211.916 185.28ZM236.183 202.22C231.123 202.22 228.593 199.602 228.593 194.41C228.593 189.636 230.749 187.04 234.995 186.644C234.929 186.468 234.907 186.226 234.907 185.962V185.5H237.459V185.962C237.459 186.226 237.415 186.468 237.371 186.644C241.595 187.04 243.751 189.636 243.751 194.41C243.751 199.602 241.221 202.22 236.183 202.22ZM231.299 194.41C231.299 198.194 232.883 199.866 236.183 199.866C239.461 199.866 241.045 198.194 241.045 194.41C241.045 190.912 239.769 189.174 237.261 188.8C237.371 189.152 237.459 189.526 237.459 190.142V194.85H234.907V190.142C234.907 189.526 234.995 189.152 235.083 188.8C232.597 189.174 231.299 190.912 231.299 194.41ZM251.297 185.28C253.651 185.28 255.543 186.71 255.543 189.042H256.181C256.181 186.71 258.073 185.28 260.427 185.28C263.661 185.28 265.729 187.128 265.729 192.628C265.729 196.764 265.597 198.194 265.179 202H262.627C262.913 198.942 263.023 196.346 263.023 192.87C263.023 188.646 261.923 187.634 260.097 187.634C258.205 187.634 257.149 188.646 257.149 190.978V197.094H254.575V190.978C254.575 188.646 253.519 187.634 251.627 187.634C249.801 187.634 248.701 188.646 248.701 192.87C248.701 196.346 248.811 198.942 249.097 202H246.545C246.127 198.194 245.995 196.764 245.995 192.628C245.995 187.128 248.063 185.28 251.297 185.28ZM96.7538 223.028C96.7538 219.706 99.0198 217.814 103.024 217.814C104.41 217.814 105.466 217.396 105.466 215.768C105.466 214.206 104.542 213.546 103.024 213.546C101.484 213.546 100.56 214.206 100.56 215.658V216.296H97.9198V215.636C97.9198 212.82 99.7678 211.28 103.024 211.28C106.258 211.28 108.106 212.82 108.106 215.548C108.106 217.022 107.27 218.408 105.312 218.408V219.046C107.6 219.046 109.272 220.608 109.272 223.028C109.272 226.328 107.006 228.22 103.024 228.22C99.0198 228.22 96.7538 226.328 96.7538 223.028ZM103.024 225.866C105.202 225.866 106.566 224.898 106.566 222.984C106.566 221.048 105.202 220.08 103.024 220.08C100.824 220.08 99.4598 221.048 99.4598 222.984C99.4818 224.92 100.824 225.866 103.024 225.866ZM111.228 222.742C111.228 222.192 111.294 221.598 111.536 220.938H114.154C113.956 221.818 113.934 222.28 113.934 222.588C113.934 224.854 115.254 225.866 117.498 225.866C119.72 225.866 121.04 224.854 121.04 222.588C121.04 217.396 115.232 217.022 115.232 211.5H117.938C117.938 216.01 123.746 216.34 123.746 222.742C123.746 226.262 121.48 228.22 117.498 228.22C113.494 228.22 111.228 226.262 111.228 222.742ZM131.058 223.6C127.846 223.38 124.788 220.542 124.788 216.846C124.788 213.238 126.922 211.28 130.068 211.28C132.18 211.28 133.5 212.424 133.83 213.392H134.468C134.798 212.424 136.382 211.28 138.934 211.28C142.608 211.28 144.874 213.238 144.874 216.67C144.874 220.102 142.608 222.06 138.934 222.06C135.282 222.06 133.016 220.102 133.016 216.67C133.016 216.032 133.082 215.438 133.258 214.91C132.686 214.162 131.63 213.634 130.376 213.634C128.682 213.634 127.494 214.646 127.494 216.912C127.494 219.882 129.694 221.598 133.39 222.918C137.966 224.546 139.506 225.646 139.814 228H136.976C136.756 226.504 134.336 225.228 132.224 225.228C130.64 225.228 129.76 225.624 128.814 226.306L127.428 224.81C128.088 224.326 128.638 224.106 129.628 224.106C130.2 224.106 130.398 224.128 131.058 224.238V223.6ZM135.634 216.67C135.634 218.76 136.91 219.794 138.934 219.794C140.98 219.794 142.256 218.76 142.256 216.67C142.256 214.58 140.98 213.546 138.934 213.546C136.91 213.546 135.634 214.58 135.634 216.67ZM144.743 222.742C144.743 222.192 144.809 221.598 145.051 220.938H147.669C147.471 221.818 147.449 222.28 147.449 222.588C147.449 224.854 148.769 225.866 151.013 225.866C153.235 225.866 154.555 224.854 154.555 222.588C154.555 217.396 148.747 217.022 148.747 211.5H151.453C151.453 216.01 157.261 216.34 157.261 222.742C157.261 226.262 154.995 228.22 151.013 228.22C147.009 228.22 144.743 226.262 144.743 222.742ZM164.684 223.424C161.472 223.204 158.414 220.542 158.414 216.846C158.414 213.238 160.526 211.28 163.738 211.28C166.114 211.28 168.006 212.71 168.006 214.602H168.644C168.644 212.71 170.536 211.28 172.89 211.28C176.124 211.28 178.192 213.238 178.192 216.846C178.192 218.386 177.774 219.926 177.048 221.4H174.518C175.134 219.926 175.486 218.628 175.486 216.912C175.486 214.646 174.386 213.634 172.56 213.634C170.668 213.634 169.612 214.646 169.612 216.846V218.958H167.038V216.846C167.038 214.646 165.982 213.634 164.068 213.634C162.264 213.634 161.12 214.646 161.12 216.912C161.12 219.882 163.32 221.598 167.016 222.918C171.592 224.546 173.132 225.646 173.44 228H170.602C170.382 226.504 167.962 225.228 165.85 225.228C164.266 225.228 163.386 225.624 162.44 226.306L161.054 224.656C161.714 224.15 162.264 223.952 163.254 223.952C163.826 223.952 164.024 223.974 164.684 224.062V223.424ZM185.921 228.22C181.917 228.22 179.651 226.262 179.651 222.83C179.651 222.258 179.739 221.73 179.893 221.29H182.533C182.379 221.928 182.357 222.368 182.357 222.742C182.357 224.854 183.677 225.866 185.921 225.866C188.143 225.866 189.463 224.854 189.463 222.83V216.67C189.463 214.646 188.143 213.634 186.251 213.634C184.337 213.634 183.017 214.646 183.017 216.67V216.934H180.311V216.67C180.311 213.238 182.577 211.28 186.251 211.28C189.903 211.28 192.169 213.238 192.169 216.67V222.83C192.169 226.262 189.903 228.22 185.921 228.22ZM200.52 228.22C196.516 228.22 194.25 226.262 194.25 222.83C194.25 219.728 196.12 217.814 199.42 217.484V216.956C199.42 215.944 199.112 215.57 198.716 215.174C197.66 214.118 197.352 213.348 197.352 212.248V211.5H199.904V211.874C199.904 212.908 200.036 213.282 200.85 214.096C201.554 214.8 201.972 215.394 201.972 216.714V217.55C205.052 217.968 206.768 219.838 206.768 222.83C206.768 226.262 204.502 228.22 200.52 228.22ZM196.912 222.786C196.912 224.898 198.232 225.91 200.52 225.91C202.786 225.91 204.106 224.898 204.106 222.786C204.106 220.718 202.786 219.706 200.52 219.706C198.232 219.706 196.912 220.718 196.912 222.786ZM208.724 222.742C208.724 222.192 208.79 221.598 209.032 220.938H211.65C211.452 221.818 211.43 222.28 211.43 222.588C211.43 224.854 212.75 225.866 214.994 225.866C217.216 225.866 218.536 224.854 218.536 222.588C218.536 217.396 212.728 217.022 212.728 211.5H215.434C215.434 216.01 221.242 216.34 221.242 222.742C221.242 226.262 218.976 228.22 214.994 228.22C210.99 228.22 208.724 226.262 208.724 222.742Z" fill="#0A35A0"/>
<path d="M277.911 277.83C277.911 277.258 277.999 276.73 278.153 276.29H280.793C280.639 276.928 280.617 277.368 280.617 277.742C280.617 279.854 281.937 280.866 284.181 280.866C286.403 280.866 287.723 279.854 287.723 277.962C287.723 276.466 286.601 275.41 284.885 275.41H283.125V273.122H284.885C286.425 273.122 287.217 272.462 287.217 270.878C287.217 269.228 286.117 268.7 285.083 268.634L285.413 266.28C287.877 266.346 289.923 267.798 289.923 270.68C289.923 272.704 288.735 273.958 286.623 273.958V274.596C288.911 274.596 290.429 276.114 290.429 278.314C290.429 281.262 288.163 283.22 284.181 283.22C280.177 283.22 277.911 281.262 277.911 277.83ZM302.058 275.982H302.696C302.696 274.09 304.588 272.66 306.942 272.66C310.176 272.66 312.244 274.552 312.244 278.424C312.244 279.876 312.09 281.152 311.738 283H309.142C309.362 281.394 309.538 280.052 309.538 278.578C309.538 276.026 308.438 275.014 306.612 275.014C304.72 275.014 303.664 276.026 303.664 278.226V280.338H301.09V278.226C301.09 276.026 300.034 275.014 298.142 275.014C296.316 275.014 295.216 276.026 295.216 278.578C295.216 280.052 295.392 281.394 295.612 283H293.038C292.664 281.152 292.51 279.876 292.51 278.424C292.51 265.884 304.104 270.152 304.698 266.5H307.536C307.25 271.978 297.306 269.14 294.974 273.98L295.59 274.134C296.118 273.254 297.196 272.66 298.318 272.66C300.276 272.66 302.058 274.09 302.058 275.982ZM320.296 283.22C316.292 283.22 314.026 281.262 314.026 277.83C314.026 277.258 314.114 276.73 314.268 276.29H316.908C316.754 276.928 316.732 277.368 316.732 277.742C316.732 279.854 318.052 280.866 320.296 280.866C322.518 280.866 323.838 279.854 323.838 277.83V271.67C323.838 269.646 322.518 268.634 320.626 268.634C318.712 268.634 317.392 269.646 317.392 271.67V271.934H314.686V271.67C314.686 268.238 316.952 266.28 320.626 266.28C324.278 266.28 326.544 268.238 326.544 271.67V277.83C326.544 281.262 324.278 283.22 320.296 283.22ZM328.339 277.742C328.339 277.192 328.405 276.598 328.647 275.938H331.265C331.067 276.818 331.045 277.28 331.045 277.588C331.045 279.854 332.365 280.866 334.609 280.866C336.831 280.866 338.151 279.854 338.151 277.588C338.151 272.396 332.343 272.022 332.343 266.5H335.049C335.049 271.01 340.857 271.34 340.857 277.742C340.857 281.262 338.591 283.22 334.609 283.22C330.605 283.22 328.339 281.262 328.339 277.742ZM350.695 283.22C345.635 283.22 343.105 280.602 343.105 275.41C343.105 270.636 345.261 268.04 349.507 267.644C349.441 267.468 349.419 267.226 349.419 266.962V266.5H351.971V266.962C351.971 267.226 351.927 267.468 351.883 267.644C356.107 268.04 358.263 270.636 358.263 275.41C358.263 280.602 355.733 283.22 350.695 283.22ZM345.811 275.41C345.811 279.194 347.395 280.866 350.695 280.866C353.973 280.866 355.557 279.194 355.557 275.41C355.557 271.912 354.281 270.174 351.773 269.8C351.883 270.152 351.971 270.526 351.971 271.142V275.85H349.419V271.142C349.419 270.526 349.507 270.152 349.595 269.8C347.109 270.174 345.811 271.912 345.811 275.41ZM366.558 266.28C370.32 266.28 372.586 268.238 372.586 273.298C372.586 277.874 372.454 279.194 372.036 283H369.484C369.77 279.942 369.88 277.346 369.88 273.298C369.88 269.646 368.582 268.634 366.558 268.634C364.534 268.634 363.214 269.646 363.214 273.298C363.214 277.346 363.324 279.942 363.61 283H361.058C360.64 279.194 360.508 277.874 360.508 273.298C360.508 268.238 362.774 266.28 366.558 266.28ZM374.376 266.39H375.608C377.522 266.39 378.908 267.71 378.908 269.338H379.546C379.546 267.71 380.998 266.28 382.912 266.28C385.64 266.28 387.334 268.238 387.334 271.076V277.83C387.334 281.262 385.068 283.22 381.086 283.22C377.082 283.22 374.816 281.262 374.816 277.83C374.816 277.258 374.904 276.73 375.058 276.29H377.698C377.544 276.928 377.522 277.368 377.522 277.742C377.522 279.854 378.842 280.866 381.086 280.866C383.308 280.866 384.628 279.854 384.628 277.83V271.296C384.628 269.646 384.1 268.634 382.538 268.634C381.042 268.634 380.514 269.646 380.514 270.812V272.726H377.918V270.812C377.918 269.646 377.412 268.634 375.894 268.634H374.376V266.39ZM394.64 266.28C397.016 266.28 398.908 267.71 398.908 269.602H399.546C399.546 267.71 401.24 266.28 403.462 266.28C405.684 266.28 407.4 267.71 407.4 269.602H408.038C408.038 267.71 409.93 266.28 412.262 266.28C415.496 266.28 417.586 268.238 417.586 271.846C417.586 273.386 417.146 274.926 416.442 276.4H413.89C414.528 274.926 414.88 273.628 414.88 271.912C414.88 269.646 413.78 268.634 411.954 268.634C410.062 268.634 409.006 269.646 409.006 271.846V273.958H406.41V271.846C406.41 269.646 405.376 268.634 403.462 268.634C401.57 268.634 400.514 269.646 400.514 271.846V273.958H397.94V271.846C397.94 269.646 396.884 268.634 394.97 268.634C393.166 268.634 392.022 269.646 392.022 271.912C392.022 276.62 396.554 277.368 401.042 277.764C407.136 278.292 410.7 279.568 411.118 283H408.28C407.554 280.624 404.364 280.316 400.162 280.316C397.412 280.316 396.422 280.91 395.454 281.702L394.024 280.14C394.684 279.546 395.454 279.304 396.158 279.304C396.752 279.304 396.928 279.326 397.962 279.48V278.842C394.398 278.556 389.316 277.566 389.316 271.846C389.316 268.238 391.428 266.28 394.64 266.28ZM425.769 266.28C429.531 266.28 431.797 268.238 431.797 273.298C431.797 277.874 431.665 279.194 431.247 283H428.695C428.981 279.942 429.091 277.346 429.091 273.298C429.091 269.646 427.793 268.634 425.769 268.634C423.745 268.634 422.425 269.646 422.425 273.298C422.425 277.346 422.535 279.942 422.821 283H420.269C419.851 279.194 419.719 277.874 419.719 273.298C419.719 268.238 421.985 266.28 425.769 266.28ZM240.722 303.83C240.722 303.258 240.81 302.73 240.964 302.29H243.604C243.45 302.928 243.428 303.368 243.428 303.742C243.428 305.854 244.748 306.866 246.992 306.866C249.214 306.866 250.534 305.854 250.534 303.962C250.534 302.466 249.412 301.41 247.696 301.41H245.936V299.122H247.696C249.236 299.122 250.028 298.462 250.028 296.878C250.028 295.228 248.928 294.7 247.894 294.634L248.224 292.28C250.688 292.346 252.734 293.798 252.734 296.68C252.734 298.704 251.546 299.958 249.434 299.958V300.596C251.722 300.596 253.24 302.114 253.24 304.314C253.24 307.262 250.974 309.22 246.992 309.22C242.988 309.22 240.722 307.262 240.722 303.83ZM260.622 292.28C262.976 292.28 264.868 293.71 264.868 296.042H265.506C265.506 293.71 267.398 292.28 269.752 292.28C272.986 292.28 275.054 294.128 275.054 299.628C275.054 303.764 274.922 305.194 274.504 309H271.952C272.238 305.942 272.348 303.346 272.348 299.87C272.348 295.646 271.248 294.634 269.422 294.634C267.53 294.634 266.474 295.646 266.474 297.978V304.094H263.9V297.978C263.9 295.646 262.844 294.634 260.952 294.634C259.126 294.634 258.026 295.646 258.026 299.87C258.026 303.346 258.136 305.942 258.422 309H255.87C255.452 305.194 255.32 303.764 255.32 299.628C255.32 294.128 257.388 292.28 260.622 292.28ZM277.409 304.028V297.12C277.409 294.084 278.927 292.5 282.491 292.5H288.827V294.854H282.469C280.665 294.854 280.093 295.778 280.093 297.252V298.33C280.093 299.166 279.983 299.782 279.675 300.618L280.291 300.772C280.951 299.298 282.755 298.44 284.691 298.44C287.617 298.44 289.905 300.134 289.905 303.742C289.905 307.328 287.639 309.22 283.635 309.22C279.675 309.22 277.409 307.328 277.409 304.028ZM283.767 300.596C281.963 300.596 280.687 301.586 280.093 302.202V304.028C280.093 305.92 281.391 306.866 283.635 306.866C285.879 306.866 287.199 305.92 287.199 303.742C287.199 301.542 285.879 300.596 283.767 300.596ZM299.455 309.22C294.395 309.22 291.865 306.602 291.865 301.41C291.865 296.636 294.021 294.04 298.267 293.644C298.201 293.468 298.179 293.226 298.179 292.962V292.5H300.731V292.962C300.731 293.226 300.687 293.468 300.643 293.644C304.867 294.04 307.023 296.636 307.023 301.41C307.023 306.602 304.493 309.22 299.455 309.22ZM294.571 301.41C294.571 305.194 296.155 306.866 299.455 306.866C302.733 306.866 304.317 305.194 304.317 301.41C304.317 297.912 303.041 296.174 300.533 295.8C300.643 296.152 300.731 296.526 300.731 297.142V301.85H298.179V297.142C298.179 296.526 298.267 296.152 298.355 295.8C295.869 296.174 294.571 297.912 294.571 301.41ZM315.076 309.22C311.072 309.22 308.806 307.262 308.806 303.83C308.806 303.258 308.894 302.73 309.048 302.29H311.688C311.534 302.928 311.512 303.368 311.512 303.742C311.512 305.854 312.832 306.866 315.076 306.866C317.298 306.866 318.618 305.854 318.618 303.83V297.67C318.618 295.646 317.298 294.634 315.406 294.634C313.492 294.634 312.172 295.646 312.172 297.67V297.934H309.466V297.67C309.466 294.238 311.732 292.28 315.406 292.28C319.058 292.28 321.324 294.238 321.324 297.67V303.83C321.324 307.262 319.058 309.22 315.076 309.22ZM323.514 304.028V297.12C323.514 294.084 325.032 292.5 328.596 292.5H334.932V294.854H328.574C326.77 294.854 326.198 295.778 326.198 297.252V298.33C326.198 299.166 326.088 299.782 325.78 300.618L326.396 300.772C327.056 299.298 328.86 298.44 330.796 298.44C333.722 298.44 336.01 300.134 336.01 303.742C336.01 307.328 333.744 309.22 329.74 309.22C325.78 309.22 323.514 307.328 323.514 304.028ZM329.872 300.596C328.068 300.596 326.792 301.586 326.198 302.202V304.028C326.198 305.92 327.496 306.866 329.74 306.866C331.984 306.866 333.304 305.92 333.304 303.742C333.304 301.542 331.984 300.596 329.872 300.596ZM345.561 309.22C340.501 309.22 337.971 306.602 337.971 301.41C337.971 296.636 340.127 294.04 344.373 293.644C344.307 293.468 344.285 293.226 344.285 292.962V292.5H346.837V292.962C346.837 293.226 346.793 293.468 346.749 293.644C350.973 294.04 353.129 296.636 353.129 301.41C353.129 306.602 350.599 309.22 345.561 309.22ZM340.677 301.41C340.677 305.194 342.261 306.866 345.561 306.866C348.839 306.866 350.423 305.194 350.423 301.41C350.423 297.912 349.147 296.174 346.639 295.8C346.749 296.152 346.837 296.526 346.837 297.142V301.85H344.285V297.142C344.285 296.526 344.373 296.152 344.461 295.8C341.975 296.174 340.677 297.912 340.677 301.41ZM361.423 292.28C365.185 292.28 367.451 294.238 367.451 299.298C367.451 303.874 367.319 305.194 366.901 309H364.349C364.635 305.942 364.745 303.346 364.745 299.298C364.745 295.646 363.447 294.634 361.423 294.634C359.399 294.634 358.079 295.646 358.079 299.298C358.079 303.346 358.189 305.942 358.475 309H355.923C355.505 305.194 355.373 303.874 355.373 299.298C355.373 294.238 357.639 292.28 361.423 292.28ZM369.813 292.5H372.519V303.808C372.519 305.92 373.839 306.866 376.083 306.866C378.327 306.866 379.625 305.986 379.625 304.38C379.625 301.872 377.535 301.256 377.535 298.66H380.241C380.241 300.662 382.331 301.432 382.331 304.38C382.331 307.394 380.065 309.22 376.083 309.22C372.079 309.22 369.813 307.328 369.813 303.808V292.5ZM396.097 309.22C392.093 309.22 389.827 307.328 389.827 303.742C389.827 300.134 392.115 298.44 395.041 298.44C396.977 298.44 398.759 299.298 399.441 300.772L400.057 300.618C399.749 299.782 399.639 299.166 399.639 298.33V297.296C399.639 295.646 399.111 294.634 397.571 294.634C396.053 294.634 395.525 295.646 395.525 296.812V297.406H392.929V296.812C392.929 295.646 392.423 294.634 390.905 294.634H389.827V292.28H390.619C392.533 292.28 393.919 293.644 393.919 295.162H394.557C394.557 293.644 396.009 292.28 397.923 292.28C400.651 292.28 402.345 294.238 402.345 297.076V304.028C402.345 307.328 400.079 309.22 396.097 309.22ZM392.533 303.742C392.533 305.92 393.853 306.866 396.097 306.866C398.319 306.866 399.639 305.92 399.639 304.028V302.202C399.045 301.586 397.769 300.596 395.943 300.596C393.853 300.596 392.533 301.542 392.533 303.742ZM410.509 309.22C406.505 309.22 404.239 307.262 404.239 303.83C404.239 303.258 404.327 302.73 404.481 302.29H407.121C406.967 302.928 406.945 303.368 406.945 303.742C406.945 305.854 408.265 306.866 410.509 306.866C412.731 306.866 414.051 305.854 414.051 303.83V297.67C414.051 295.646 412.731 294.634 410.839 294.634C408.925 294.634 407.605 295.646 407.605 297.67V297.934H404.899V297.67C404.899 294.238 407.165 292.28 410.839 292.28C414.491 292.28 416.757 294.238 416.757 297.67V303.83C416.757 307.262 414.491 309.22 410.509 309.22ZM418.816 302.29H421.434C421.28 302.928 421.258 303.368 421.258 303.742C421.258 305.854 422.578 306.866 424.822 306.866C427.044 306.866 428.364 305.854 428.364 303.83V298.132C427.77 297.516 426.604 296.526 424.998 296.526C423.128 296.526 421.918 297.472 421.918 299.672H419.212C419.212 296.064 421.39 294.37 424.096 294.37C425.812 294.37 427.484 295.228 428.166 296.702L428.782 296.548C428.474 295.712 428.364 295.096 428.364 294.26V292.5H431.07V303.83C431.07 307.262 428.804 309.22 424.822 309.22C420.818 309.22 418.552 307.262 418.552 303.83C418.552 303.258 418.64 302.73 418.816 302.29ZM439.41 309.22C435.406 309.22 433.14 307.328 433.14 303.742C433.14 300.134 435.428 298.44 438.354 298.44C440.29 298.44 442.072 299.298 442.754 300.772L443.37 300.618C443.062 299.782 442.952 299.166 442.952 298.33V297.472C442.952 295.58 441.632 294.634 439.74 294.634C437.826 294.634 436.506 295.58 436.506 297.032V297.252H433.8V297.032C433.8 294.172 436.066 292.28 439.74 292.28C443.392 292.28 445.658 294.172 445.658 297.472V304.028C445.658 307.328 443.392 309.22 439.41 309.22ZM435.846 303.742C435.846 305.92 437.166 306.866 439.41 306.866C441.632 306.866 442.952 305.92 442.952 304.028V302.202C442.358 301.586 441.082 300.596 439.256 300.596C437.166 300.596 435.846 301.542 435.846 303.742ZM448.124 304.028V297.12C448.124 294.084 449.642 292.5 453.206 292.5H459.542V294.854H453.184C451.38 294.854 450.808 295.778 450.808 297.252V298.33C450.808 299.166 450.698 299.782 450.39 300.618L451.006 300.772C451.666 299.298 453.47 298.44 455.406 298.44C458.332 298.44 460.62 300.134 460.62 303.742C460.62 307.328 458.354 309.22 454.35 309.22C450.39 309.22 448.124 307.328 448.124 304.028ZM454.482 300.596C452.678 300.596 451.402 301.586 450.808 302.202V304.028C450.808 305.92 452.106 306.866 454.35 306.866C456.594 306.866 457.914 305.92 457.914 303.742C457.914 301.542 456.594 300.596 454.482 300.596ZM462.294 303.742C462.294 303.192 462.36 302.598 462.602 301.938H465.22C465.022 302.818 465 303.28 465 303.588C465 305.854 466.32 306.866 468.564 306.866C470.786 306.866 472.106 305.854 472.106 303.588C472.106 298.396 466.298 298.022 466.298 292.5H469.004C469.004 297.01 474.812 297.34 474.812 303.742C474.812 307.262 472.546 309.22 468.564 309.22C464.56 309.22 462.294 307.262 462.294 303.742Z" fill="#0A35A0"/>
<path d="M411.903 214.794C411.903 212.088 411.991 210.35 412.871 206.5H415.489C414.609 210.548 414.609 212.22 414.609 214.728C414.609 218.974 416.017 220.866 419.361 220.866C422.529 220.866 423.915 219.81 423.915 217.918C423.915 216.092 423.079 215.036 421.363 215.036H419.339V212.748H421.363C422.925 212.748 423.629 212.088 423.629 211.098C423.629 208.81 419.493 209.844 419.493 206.5H422.199C422.199 208.436 426.335 208.084 426.335 211.01C426.335 212.374 425.279 213.584 422.749 213.584V214.222C425.389 214.222 426.621 215.696 426.621 218.05C426.621 221.262 424.289 223.22 419.361 223.22C414.257 223.22 411.903 220.382 411.903 214.794ZM434.622 206.28C438.384 206.28 440.65 208.238 440.65 213.298C440.65 217.874 440.518 219.194 440.1 223H437.548C437.834 219.942 437.944 217.346 437.944 213.298C437.944 209.646 436.646 208.634 434.622 208.634C432.598 208.634 431.278 209.646 431.278 213.298C431.278 217.346 431.388 219.942 431.674 223H429.122C428.704 219.194 428.572 217.874 428.572 213.298C428.572 208.238 430.838 206.28 434.622 206.28ZM448.446 206.28C450.734 206.28 452.318 207.424 452.648 208.392H453.286C453.616 207.424 455.002 206.28 457.202 206.28C460.348 206.28 462.482 208.238 462.482 210.878C462.482 213.804 460.568 214.75 458.126 214.75V215.388C460.062 215.388 461.47 216.312 461.47 218.644C461.47 221.13 459.116 223.22 454.408 223.22C449.7 223.22 447.346 221.262 447.346 217.962H450.052C450.052 219.942 451.46 220.866 454.408 220.866C457.356 220.866 458.764 219.92 458.764 218.336C458.764 216.598 457.708 216.224 456.784 216.224H455.266V213.914H457.026C458.104 213.914 459.776 213.452 459.776 211.032C459.776 209.536 458.588 208.634 456.894 208.634C455.64 208.634 454.584 209.162 454.012 209.91C454.188 210.438 454.254 211.032 454.254 211.56C454.254 214.882 451.988 216.84 448.446 216.84C444.882 216.84 442.616 214.882 442.616 211.56C442.616 208.238 444.882 206.28 448.446 206.28ZM445.234 211.56C445.234 213.54 446.51 214.574 448.446 214.574C450.36 214.574 451.636 213.54 451.636 211.56C451.636 209.58 450.36 208.546 448.446 208.546C446.51 208.546 445.234 209.58 445.234 211.56ZM474.278 215.982H474.916C474.916 214.09 476.808 212.66 479.162 212.66C482.396 212.66 484.464 214.552 484.464 218.424C484.464 219.876 484.31 221.152 483.958 223H481.362C481.582 221.394 481.758 220.052 481.758 218.578C481.758 216.026 480.658 215.014 478.832 215.014C476.94 215.014 475.884 216.026 475.884 218.226V220.338H473.31V218.226C473.31 216.026 472.254 215.014 470.362 215.014C468.536 215.014 467.436 216.026 467.436 218.578C467.436 220.052 467.612 221.394 467.832 223H465.258C464.884 221.152 464.73 219.876 464.73 218.424C464.73 205.884 476.324 210.152 476.918 206.5H479.756C479.47 211.978 469.526 209.14 467.194 213.98L467.81 214.134C468.338 213.254 469.416 212.66 470.538 212.66C472.496 212.66 474.278 214.09 474.278 215.982ZM486.247 206.39H487.479C489.393 206.39 490.779 207.71 490.779 209.338H491.417C491.417 207.71 492.869 206.28 494.783 206.28C497.511 206.28 499.205 208.238 499.205 211.076V217.83C499.205 221.262 496.939 223.22 492.957 223.22C488.953 223.22 486.687 221.262 486.687 217.83C486.687 217.258 486.775 216.73 486.929 216.29H489.569C489.415 216.928 489.393 217.368 489.393 217.742C489.393 219.854 490.713 220.866 492.957 220.866C495.179 220.866 496.499 219.854 496.499 217.83V211.296C496.499 209.646 495.971 208.634 494.409 208.634C492.913 208.634 492.385 209.646 492.385 210.812V212.726H489.789V210.812C489.789 209.646 489.283 208.634 487.765 208.634H486.247V206.39ZM506.511 206.28C508.887 206.28 510.779 207.71 510.779 209.602H511.417C511.417 207.71 513.111 206.28 515.333 206.28C517.555 206.28 519.271 207.71 519.271 209.602H519.909C519.909 207.71 521.801 206.28 524.133 206.28C527.367 206.28 529.457 208.238 529.457 211.846C529.457 213.386 529.017 214.926 528.313 216.4H525.761C526.399 214.926 526.751 213.628 526.751 211.912C526.751 209.646 525.651 208.634 523.825 208.634C521.933 208.634 520.877 209.646 520.877 211.846V213.958H518.281V211.846C518.281 209.646 517.247 208.634 515.333 208.634C513.441 208.634 512.385 209.646 512.385 211.846V213.958H509.811V211.846C509.811 209.646 508.755 208.634 506.841 208.634C505.037 208.634 503.893 209.646 503.893 211.912C503.893 216.62 508.425 217.368 512.913 217.764C519.007 218.292 522.571 219.568 522.989 223H520.151C519.425 220.624 516.235 220.316 512.033 220.316C509.283 220.316 508.293 220.91 507.325 221.702L505.895 220.14C506.555 219.546 507.325 219.304 508.029 219.304C508.623 219.304 508.799 219.326 509.833 219.48V218.842C506.269 218.556 501.187 217.566 501.187 211.846C501.187 208.238 503.299 206.28 506.511 206.28ZM537.64 206.28C541.402 206.28 543.668 208.238 543.668 213.298C543.668 217.874 543.536 219.194 543.118 223H540.566C540.852 219.942 540.962 217.346 540.962 213.298C540.962 209.646 539.664 208.634 537.64 208.634C535.616 208.634 534.296 209.646 534.296 213.298C534.296 217.346 534.406 219.942 534.692 223H532.14C531.722 219.194 531.59 217.874 531.59 213.298C531.59 208.238 533.856 206.28 537.64 206.28ZM557.726 223.22C553.722 223.22 551.456 221.328 551.456 217.742C551.456 214.134 553.744 212.44 556.67 212.44C558.606 212.44 560.388 213.298 561.07 214.772L561.686 214.618C561.378 213.782 561.268 213.166 561.268 212.33V211.472C561.268 209.58 559.948 208.634 558.056 208.634C556.142 208.634 554.822 209.58 554.822 211.032V211.252H552.116V211.032C552.116 208.172 554.382 206.28 558.056 206.28C561.708 206.28 563.974 208.172 563.974 211.472V218.028C563.974 221.328 561.708 223.22 557.726 223.22ZM554.162 217.742C554.162 219.92 555.482 220.866 557.726 220.866C559.948 220.866 561.268 219.92 561.268 218.028V216.202C560.674 215.586 559.398 214.596 557.572 214.596C555.482 214.596 554.162 215.542 554.162 217.742ZM566.044 217.742C566.044 217.192 566.11 216.598 566.352 215.938H568.97C568.772 216.818 568.75 217.28 568.75 217.588C568.75 219.854 570.07 220.866 572.314 220.866C574.536 220.866 575.856 219.854 575.856 217.588C575.856 212.396 570.048 212.022 570.048 206.5H572.754C572.754 211.01 578.562 211.34 578.562 217.742C578.562 221.262 576.296 223.22 572.314 223.22C568.31 223.22 566.044 221.262 566.044 217.742ZM590.358 215.982H590.996C590.996 214.09 592.888 212.66 595.242 212.66C598.476 212.66 600.544 214.552 600.544 218.424C600.544 219.876 600.39 221.152 600.038 223H597.442C597.662 221.394 597.838 220.052 597.838 218.578C597.838 216.026 596.738 215.014 594.912 215.014C593.02 215.014 591.964 216.026 591.964 218.226V220.338H589.39V218.226C589.39 216.026 588.334 215.014 586.442 215.014C584.616 215.014 583.516 216.026 583.516 218.578C583.516 220.052 583.692 221.394 583.912 223H581.338C580.964 221.152 580.81 219.876 580.81 218.424C580.81 205.884 592.404 210.152 592.998 206.5H595.836C595.55 211.978 585.606 209.14 583.274 213.98L583.89 214.134C584.418 213.254 585.496 212.66 586.618 212.66C588.576 212.66 590.358 214.09 590.358 215.982ZM602.327 217.83C602.327 217.258 602.415 216.73 602.569 216.29H605.209C605.055 216.928 605.033 217.368 605.033 217.742C605.033 219.854 606.353 220.866 608.597 220.866C610.819 220.866 612.139 219.854 612.139 217.962C612.139 216.466 611.017 215.41 609.301 215.41H607.541V213.122H609.301C610.841 213.122 611.633 212.462 611.633 210.878C611.633 209.228 610.533 208.7 609.499 208.634L609.829 206.28C612.293 206.346 614.339 207.798 614.339 210.68C614.339 212.704 613.151 213.958 611.039 213.958V214.596C613.327 214.596 614.845 216.114 614.845 218.314C614.845 221.262 612.579 223.22 608.597 223.22C604.593 223.22 602.327 221.262 602.327 217.83ZM622.734 223.22C618.73 223.22 616.464 221.262 616.464 217.83C616.464 217.258 616.552 216.73 616.706 216.29H619.346C619.192 216.928 619.17 217.368 619.17 217.742C619.17 219.854 620.49 220.866 622.734 220.866C624.956 220.866 626.276 219.854 626.276 217.83V211.67C626.276 209.646 624.956 208.634 623.064 208.634C621.15 208.634 619.83 209.646 619.83 211.67V211.934H617.124V211.67C617.124 208.238 619.39 206.28 623.064 206.28C626.716 206.28 628.982 208.238 628.982 211.67V217.83C628.982 221.262 626.716 223.22 622.734 223.22ZM638.652 223.22C633.592 223.22 631.062 220.602 631.062 215.41C631.062 210.636 633.218 208.04 637.464 207.644C637.398 207.468 637.376 207.226 637.376 206.962V206.5H639.928V206.962C639.928 207.226 639.884 207.468 639.84 207.644C644.064 208.04 646.22 210.636 646.22 215.41C646.22 220.602 643.69 223.22 638.652 223.22ZM633.768 215.41C633.768 219.194 635.352 220.866 638.652 220.866C641.93 220.866 643.514 219.194 643.514 215.41C643.514 211.912 642.238 210.174 639.73 209.8C639.84 210.152 639.928 210.526 639.928 211.142V215.85H637.376V211.142C637.376 210.526 637.464 210.152 637.552 209.8C635.066 210.174 633.768 211.912 633.768 215.41ZM654.515 206.28C658.277 206.28 660.543 208.238 660.543 213.298C660.543 217.874 660.411 219.194 659.993 223H657.441C657.727 219.942 657.837 217.346 657.837 213.298C657.837 209.646 656.539 208.634 654.515 208.634C652.491 208.634 651.171 209.646 651.171 213.298C651.171 217.346 651.281 219.942 651.567 223H649.015C648.597 219.194 648.465 217.874 648.465 213.298C648.465 208.238 650.731 206.28 654.515 206.28ZM662.905 218.028V211.12C662.905 208.084 664.423 206.5 667.987 206.5H674.323V208.854H667.965C666.161 208.854 665.589 209.778 665.589 211.252V212.33C665.589 213.166 665.479 213.782 665.171 214.618L665.787 214.772C666.447 213.298 668.251 212.44 670.187 212.44C673.113 212.44 675.401 214.134 675.401 217.742C675.401 221.328 673.135 223.22 669.131 223.22C665.171 223.22 662.905 221.328 662.905 218.028ZM669.263 214.596C667.459 214.596 666.183 215.586 665.589 216.202V218.028C665.589 219.92 666.887 220.866 669.131 220.866C671.375 220.866 672.695 219.92 672.695 217.742C672.695 215.542 671.375 214.596 669.263 214.596ZM677.361 218.028C677.361 214.706 679.627 212.814 683.631 212.814C685.017 212.814 686.073 212.396 686.073 210.768C686.073 209.206 685.149 208.546 683.631 208.546C682.091 208.546 681.167 209.206 681.167 210.658V211.296H678.527V210.636C678.527 207.82 680.375 206.28 683.631 206.28C686.865 206.28 688.713 207.82 688.713 210.548C688.713 212.022 687.877 213.408 685.919 213.408V214.046C688.207 214.046 689.879 215.608 689.879 218.028C689.879 221.328 687.613 223.22 683.631 223.22C679.627 223.22 677.361 221.328 677.361 218.028ZM683.631 220.866C685.809 220.866 687.173 219.898 687.173 217.984C687.173 216.048 685.809 215.08 683.631 215.08C681.431 215.08 680.067 216.048 680.067 217.984C680.089 219.92 681.431 220.866 683.631 220.866ZM698.171 206.28C701.933 206.28 704.199 208.238 704.199 213.298C704.199 217.874 704.067 219.194 703.649 223H701.097C701.383 219.942 701.493 217.346 701.493 213.298C701.493 209.646 700.195 208.634 698.171 208.634C696.147 208.634 694.827 209.646 694.827 213.298C694.827 217.346 694.937 219.942 695.223 223H692.671C692.253 219.194 692.121 217.874 692.121 213.298C692.121 208.238 694.387 206.28 698.171 206.28Z" fill="#0A35A0"/>
<path d="M63.1355 108.6C59.9235 108.38 56.8655 105.542 56.8655 101.846C56.8655 98.238 58.9995 96.28 62.1455 96.28C64.2575 96.28 65.5775 97.424 65.9075 98.392H66.5455C66.8755 97.424 68.4595 96.28 71.0115 96.28C74.6855 96.28 76.9515 98.238 76.9515 101.67C76.9515 105.102 74.6855 107.06 71.0115 107.06C67.3595 107.06 65.0935 105.102 65.0935 101.67C65.0935 101.032 65.1595 100.438 65.3355 99.91C64.7635 99.162 63.7075 98.634 62.4535 98.634C60.7595 98.634 59.5715 99.646 59.5715 101.912C59.5715 104.882 61.7715 106.598 65.4675 107.918C70.0435 109.546 71.5835 110.646 71.8915 113H69.0535C68.8335 111.504 66.4135 110.228 64.3015 110.228C62.7175 110.228 61.8375 110.624 60.8915 111.306L59.5055 109.81C60.1655 109.326 60.7155 109.106 61.7055 109.106C62.2775 109.106 62.4755 109.128 63.1355 109.238V108.6ZM67.7115 101.67C67.7115 103.76 68.9875 104.794 71.0115 104.794C73.0575 104.794 74.3335 103.76 74.3335 101.67C74.3335 99.58 73.0575 98.546 71.0115 98.546C68.9875 98.546 67.7115 99.58 67.7115 101.67ZM84.8909 113.22C80.8869 113.22 78.6209 111.262 78.6209 107.83C78.6209 107.258 78.7089 106.73 78.8629 106.29H81.5029C81.3489 106.928 81.3269 107.368 81.3269 107.742C81.3269 109.854 82.6469 110.866 84.8909 110.866C87.1129 110.866 88.4329 109.854 88.4329 107.83V101.67C88.4329 99.646 87.1129 98.634 85.2209 98.634C83.3069 98.634 81.9869 99.646 81.9869 101.67V101.934H79.2809V101.67C79.2809 98.238 81.5469 96.28 85.2209 96.28C88.8729 96.28 91.1389 98.238 91.1389 101.67V107.83C91.1389 111.262 88.8729 113.22 84.8909 113.22ZM99.0277 113.22C95.0237 113.22 92.7577 111.262 92.7577 107.83C92.7577 107.258 92.8457 106.73 92.9997 106.29H95.6397C95.4857 106.928 95.4637 107.368 95.4637 107.742C95.4637 109.854 96.7837 110.866 99.0277 110.866C101.25 110.866 102.57 109.854 102.57 107.962C102.57 106.488 101.734 105.41 100.018 105.41H98.2577V103.122H100.018C101.558 103.122 102.35 102.418 102.35 101.12C102.35 99.69 101.03 98.634 99.2477 98.634C97.4437 98.634 96.1237 99.646 96.1237 101.67V101.934H93.4177V101.67C93.4177 98.238 95.6837 96.28 99.2477 96.28C102.79 96.28 105.056 98.216 105.056 101.054C105.056 102.748 103.934 103.958 101.756 103.958V104.596C104.044 104.596 105.276 106.136 105.276 108.138C105.276 111.35 103.01 113.22 99.0277 113.22ZM113.164 113.22C109.16 113.22 106.894 111.262 106.894 107.83C106.894 107.258 106.982 106.73 107.136 106.29H109.776C109.622 106.928 109.6 107.368 109.6 107.742C109.6 109.854 110.92 110.866 113.164 110.866C115.386 110.866 116.706 109.854 116.706 107.83V101.67C116.706 99.646 115.386 98.634 113.494 98.634C111.58 98.634 110.26 99.646 110.26 101.67V101.934H107.554V101.67C107.554 98.238 109.82 96.28 113.494 96.28C117.146 96.28 119.412 98.238 119.412 101.67V107.83C119.412 111.262 117.146 113.22 113.164 113.22ZM126.707 96.28C129.083 96.28 130.975 97.71 130.975 99.602H131.613C131.613 97.71 133.307 96.28 135.529 96.28C137.751 96.28 139.467 97.71 139.467 99.602H140.105C140.105 97.71 141.997 96.28 144.329 96.28C147.563 96.28 149.653 98.238 149.653 101.846C149.653 103.386 149.213 104.926 148.509 106.4H145.957C146.595 104.926 146.947 103.628 146.947 101.912C146.947 99.646 145.847 98.634 144.021 98.634C142.129 98.634 141.073 99.646 141.073 101.846V103.958H138.477V101.846C138.477 99.646 137.443 98.634 135.529 98.634C133.637 98.634 132.581 99.646 132.581 101.846V103.958H130.007V101.846C130.007 99.646 128.951 98.634 127.037 98.634C125.233 98.634 124.089 99.646 124.089 101.912C124.089 106.62 128.621 107.368 133.109 107.764C139.203 108.292 142.767 109.568 143.185 113H140.347C139.621 110.624 136.431 110.316 132.229 110.316C129.479 110.316 128.489 110.91 127.521 111.702L126.091 110.14C126.751 109.546 127.521 109.304 128.225 109.304C128.819 109.304 128.995 109.326 130.029 109.48V108.842C126.465 108.556 121.383 107.566 121.383 101.846C121.383 98.238 123.495 96.28 126.707 96.28ZM157.088 96.28C159.442 96.28 161.334 97.71 161.334 100.042H161.972C161.972 97.71 163.864 96.28 166.218 96.28C169.452 96.28 171.52 98.128 171.52 103.628C171.52 107.764 171.388 109.194 170.97 113H168.418C168.704 109.942 168.814 107.346 168.814 103.87C168.814 99.646 167.714 98.634 165.888 98.634C163.996 98.634 162.94 99.646 162.94 101.978V108.094H160.366V101.978C160.366 99.646 159.31 98.634 157.418 98.634C155.592 98.634 154.492 99.646 154.492 103.87C154.492 107.346 154.602 109.942 154.888 113H152.336C151.918 109.194 151.786 107.764 151.786 103.628C151.786 98.128 153.854 96.28 157.088 96.28ZM173.479 108.27C173.479 107.698 173.545 107.17 173.721 106.73H176.339C176.185 107.368 176.185 107.808 176.185 108.182C176.185 109.854 177.505 110.866 179.749 110.866C181.971 110.866 183.291 109.898 183.291 108.358C183.291 107.17 182.455 106.136 180.739 106.136H178.979V103.848H180.739C182.279 103.848 183.071 103.188 183.071 102.044C183.071 99.404 177.923 100.548 177.923 96.5H180.629C180.629 98.964 185.777 98.458 185.777 101.912C185.777 103.452 184.655 104.662 182.477 104.662V105.3C184.765 105.3 185.997 106.774 185.997 108.49C185.997 111.35 183.731 113.22 179.749 113.22C175.745 113.22 173.479 111.262 173.479 108.27ZM194.229 113.22C190.225 113.22 187.959 111.328 187.959 107.742C187.959 104.134 190.247 102.44 193.173 102.44C195.109 102.44 196.891 103.298 197.573 104.772L198.189 104.618C197.881 103.782 197.771 103.166 197.771 102.33V101.472C197.771 99.58 196.451 98.634 194.559 98.634C192.645 98.634 191.325 99.58 191.325 101.032V101.252H188.619V101.032C188.619 98.172 190.885 96.28 194.559 96.28C198.211 96.28 200.477 98.172 200.477 101.472V108.028C200.477 111.328 198.211 113.22 194.229 113.22ZM190.665 107.742C190.665 109.92 191.985 110.866 194.229 110.866C196.451 110.866 197.771 109.92 197.771 108.028V106.202C197.177 105.586 195.901 104.596 194.075 104.596C191.985 104.596 190.665 105.542 190.665 107.742ZM208.641 113.22C204.637 113.22 202.371 111.262 202.371 107.83C202.371 107.258 202.459 106.73 202.613 106.29H205.253C205.099 106.928 205.077 107.368 205.077 107.742C205.077 109.854 206.397 110.866 208.641 110.866C210.863 110.866 212.183 109.854 212.183 107.83V101.67C212.183 99.646 210.863 98.634 208.971 98.634C207.057 98.634 205.737 99.646 205.737 101.67V101.934H203.031V101.67C203.031 98.238 205.297 96.28 208.971 96.28C212.623 96.28 214.889 98.238 214.889 101.67V107.83C214.889 111.262 212.623 113.22 208.641 113.22ZM217.08 108.028V101.12C217.08 98.084 218.598 96.5 222.162 96.5H228.498V98.854H222.14C220.336 98.854 219.764 99.778 219.764 101.252V102.33C219.764 103.166 219.654 103.782 219.346 104.618L219.962 104.772C220.622 103.298 222.426 102.44 224.362 102.44C227.288 102.44 229.576 104.134 229.576 107.742C229.576 111.328 227.31 113.22 223.306 113.22C219.346 113.22 217.08 111.328 217.08 108.028ZM223.438 104.596C221.634 104.596 220.358 105.586 219.764 106.202V108.028C219.764 109.92 221.062 110.866 223.306 110.866C225.55 110.866 226.87 109.92 226.87 107.742C226.87 105.542 225.55 104.596 223.438 104.596ZM239.126 113.22C234.066 113.22 231.536 110.602 231.536 105.41C231.536 100.636 233.692 98.04 237.938 97.644C237.872 97.468 237.85 97.226 237.85 96.962V96.5H240.402V96.962C240.402 97.226 240.358 97.468 240.314 97.644C244.538 98.04 246.694 100.636 246.694 105.41C246.694 110.602 244.164 113.22 239.126 113.22ZM234.242 105.41C234.242 109.194 235.826 110.866 239.126 110.866C242.404 110.866 243.988 109.194 243.988 105.41C243.988 101.912 242.712 100.174 240.204 99.8C240.314 100.152 240.402 100.526 240.402 101.142V105.85H237.85V101.142C237.85 100.526 237.938 100.152 238.026 99.8C235.54 100.174 234.242 101.912 234.242 105.41ZM254.988 96.28C258.75 96.28 261.016 98.238 261.016 103.298C261.016 107.874 260.884 109.194 260.466 113H257.914C258.2 109.942 258.31 107.346 258.31 103.298C258.31 99.646 257.012 98.634 254.988 98.634C252.964 98.634 251.644 99.646 251.644 103.298C251.644 107.346 251.754 109.942 252.04 113H249.488C249.07 109.194 248.938 107.874 248.938 103.298C248.938 98.238 251.204 96.28 254.988 96.28Z" fill="#0A35A0"/>
<path d="M158 71C158 51.1178 174.563 35.0001 194.995 35.0001M190.889 38L195 35L190.889 32" stroke="#0A35A0"/>
<path d="M522 35C541.878 35 557.993 51.1175 557.993 70.9994M555.001 67.0001L558.001 71L561 67.0001" stroke="#0A35A0"/>
<path d="M158.889 163.038L158.889 144.038M158.889 144.038L162 148M158.889 144.038L156 148" stroke="#0A35A0"/>
<path d="M557.889 158.962L557.889 177.962M557.889 177.962L555 174M557.889 177.962L561 174" stroke="#0A35A0"/>
<path d="M195 289C175.112 289 158.99 272.883 158.99 253.001M162.002 257L159.001 253L156 257" stroke="#0A35A0"/>
<path d="M558 253C558 272.882 541.885 289 522.007 289M525.999 286L522 289L525.999 292" stroke="#0A35A0"/>
</svg>
